<svg xmlns="http://www.w3.org/2000/svg" xmlns:xlink="http://www.w3.org/1999/xlink" width="674" zoomAndPan="magnify" viewBox="0 0 505.5 98.999996" height="132" preserveAspectRatio="xMidYMid meet" version="1.0"><defs><g/><clipPath id="37f1e60725"><path d="M 0 22.492188 L 196.5 22.492188 L 196.5 87.742188 L 0 87.742188 Z M 0 22.492188 " clip-rule="nonzero"/></clipPath><clipPath id="2d88492d09"><path d="M 0 65 L 40 65 L 40 87.742188 L 0 87.742188 Z M 0 65 " clip-rule="nonzero"/></clipPath><clipPath id="e6b94a6fe3"><path d="M 21 83 L 26 83 L 26 87.742188 L 21 87.742188 Z M 21 83 " clip-rule="nonzero"/></clipPath><clipPath id="79923febf3"><path d="M 37 22.492188 L 93 22.492188 L 93 87.742188 L 37 87.742188 Z M 37 22.492188 " clip-rule="nonzero"/></clipPath><clipPath id="44f389c7cd"><path d="M 137 48 L 181 48 L 181 87.742188 L 137 87.742188 Z M 137 48 " clip-rule="nonzero"/></clipPath><clipPath id="5922f2f79d"><path d="M 102 62 L 132 62 L 132 87.742188 L 102 87.742188 Z M 102 62 " clip-rule="nonzero"/></clipPath><clipPath id="4eb085f159"><path d="M 133 85 L 136 85 L 136 87.742188 L 133 87.742188 Z M 133 85 " clip-rule="nonzero"/></clipPath><clipPath id="7312a49234"><path d="M 9 85 L 12 85 L 12 87.742188 L 9 87.742188 Z M 9 85 " clip-rule="nonzero"/></clipPath><clipPath id="52379da7fe"><path d="M 55 85 L 57 85 L 57 87.742188 L 55 87.742188 Z M 55 85 " clip-rule="nonzero"/></clipPath><clipPath id="919b77d8d3"><path d="M 161 85 L 164 85 L 164 87.742188 L 161 87.742188 Z M 161 85 " clip-rule="nonzero"/></clipPath><clipPath id="6f273a5ea8"><path d="M 86 22.492188 L 140 22.492188 L 140 72 L 86 72 Z M 86 22.492188 " clip-rule="nonzero"/></clipPath><clipPath id="ae77bba91c"><path d="M 94 22.492188 L 103 22.492188 L 103 33 L 94 33 Z M 94 22.492188 " clip-rule="nonzero"/></clipPath><clipPath id="66ddd304c6"><path d="M 123 85 L 126 85 L 126 87.742188 L 123 87.742188 Z M 123 85 " clip-rule="nonzero"/></clipPath><clipPath id="0fa7d7da7e"><path d="M 110 79 L 122 79 L 122 87.742188 L 110 87.742188 Z M 110 79 " clip-rule="nonzero"/></clipPath><clipPath id="e479d28a26"><path d="M 174 85 L 177 85 L 177 87.742188 L 174 87.742188 Z M 174 85 " clip-rule="nonzero"/></clipPath><clipPath id="979eefc7d5"><path d="M 167 83 L 173 83 L 173 87.742188 L 167 87.742188 Z M 167 83 " clip-rule="nonzero"/></clipPath><clipPath id="0be8e684cf"><path d="M 43 63 L 85 63 L 85 87.742188 L 43 87.742188 Z M 43 63 " clip-rule="nonzero"/></clipPath><clipPath id="af6a0c5fb0"><path d="M 90 22.492188 L 93 22.492188 L 93 25 L 90 25 Z M 90 22.492188 " clip-rule="nonzero"/></clipPath><clipPath id="f07116ff7d"><path d="M 0 85 L 2 85 L 2 87.742188 L 0 87.742188 Z M 0 85 " clip-rule="nonzero"/></clipPath><clipPath id="1a9177b8d6"><path d="M 450 82 L 452 82 L 452 89.273438 L 450 89.273438 Z M 450 82 " clip-rule="nonzero"/></clipPath><clipPath id="67d3ab84bd"><path d="M 448.144531 77.273438 L 453.394531 77.273438 L 453.394531 83 L 448.144531 83 Z M 448.144531 77.273438 " clip-rule="nonzero"/></clipPath><clipPath id="ad26472c54"><path d="M 450 82 L 452 82 L 452 89.273438 L 450 89.273438 Z M 450 82 " clip-rule="nonzero"/></clipPath><clipPath id="0a585b71c2"><path d="M 448.144531 77.273438 L 453.394531 77.273438 L 453.394531 83 L 448.144531 83 Z M 448.144531 77.273438 " clip-rule="nonzero"/></clipPath><clipPath id="0c9513aa9b"><path d="M 448.144531 77.273438 L 453.394531 77.273438 L 453.394531 83 L 448.144531 83 Z M 448.144531 77.273438 " clip-rule="nonzero"/></clipPath><clipPath id="68572d9cb1"><path d="M 415.726562 55.0625 L 435.976562 55.0625 L 435.976562 88.8125 L 415.726562 88.8125 Z M 415.726562 55.0625 " clip-rule="nonzero"/></clipPath></defs><g fill="#333333" fill-opacity="1"><g transform="translate(196.849664, 44.745106)"><g><path d="M 9.351562 -15.921875 C 9.351562 -21.988281 13.730469 -25 18.113281 -25 C 21.761719 -25 25.457031 -22.902344 26.507812 -18.660156 L 34.398438 -18.660156 C 33.394531 -26.871094 26.324219 -32.4375 18.113281 -32.4375 C 8.988281 -32.4375 1.597656 -25.320312 1.597656 -15.921875 C 1.597656 -6.523438 8.988281 0.457031 18.113281 0.457031 C 26.414062 0.457031 33.257812 -5.0625 34.445312 -13.414062 L 26.550781 -13.414062 C 25.546875 -9.078125 21.851562 -6.890625 18.113281 -6.890625 C 13.730469 -6.890625 9.351562 -9.898438 9.351562 -15.921875 Z M 9.351562 -15.921875 "/></g></g></g><g fill="#333333" fill-opacity="1"><g transform="translate(230.883154, 44.745106)"><g><path d="M 2.328125 -15.921875 C 2.328125 -6.523438 9.71875 0.457031 18.839844 0.457031 C 27.964844 0.457031 35.402344 -6.660156 35.402344 -15.921875 C 35.402344 -25.320312 27.964844 -32.4375 18.839844 -32.4375 C 9.71875 -32.4375 2.328125 -25.320312 2.328125 -15.921875 Z M 10.082031 -15.921875 C 10.082031 -21.988281 14.460938 -24.957031 18.839844 -24.957031 C 23.222656 -24.957031 27.554688 -21.945312 27.554688 -15.921875 C 27.554688 -9.945312 23.128906 -6.933594 18.75 -6.933594 C 14.371094 -6.933594 10.082031 -9.898438 10.082031 -15.921875 Z M 10.082031 -15.921875 "/></g></g></g><g fill="#333333" fill-opacity="1"><g transform="translate(266.741508, 44.745106)"><g><path d="M 19.34375 -31.933594 L 19.34375 -15.96875 L 8.304688 -31.933594 L 2.28125 -31.933594 L 2.28125 0 L 10.035156 0 L 10.035156 -15.558594 L 20.941406 0 L 27.054688 0 L 27.054688 -31.933594 Z M 19.34375 -31.933594 "/></g></g></g><g fill="#333333" fill-opacity="1"><g transform="translate(294.342327, 44.745106)"><g><path d="M 18.113281 -21.851562 L 25.957031 -21.851562 C 25.957031 -29.199219 19.800781 -32.390625 14.097656 -32.390625 C 7.300781 -32.390625 1.550781 -28.195312 1.917969 -21.167969 L 1.917969 -21.214844 C 2.507812 -13.867188 8.621094 -12.726562 13.777344 -12.226562 C 14.964844 -12.089844 18.613281 -12 18.613281 -9.71875 C 18.613281 -7.890625 16.5625 -7.164062 14.007812 -7.164062 C 12.226562 -7.164062 9.582031 -7.753906 9.582031 -10.902344 L 1.6875 -10.902344 C 1.6875 -2.78125 8.757812 0.410156 13.960938 0.410156 C 20.027344 0.410156 26.507812 -3.421875 26.507812 -10.082031 C 26.507812 -10.765625 26.414062 -11.589844 26.277344 -12.316406 C 24.910156 -18.066406 19.207031 -19.253906 14.691406 -19.84375 C 13.640625 -19.9375 9.855469 -19.980469 9.855469 -22.355469 C 9.855469 -24.089844 11.542969 -25.136719 13.960938 -25.136719 C 16.378906 -25.136719 18.113281 -23.996094 18.113281 -21.851562 Z M 18.113281 -21.851562 "/></g></g></g><g fill="#333333" fill-opacity="1"><g transform="translate(321.030723, 44.745106)"><g><path d="M 2.328125 -15.921875 C 2.328125 -6.523438 9.71875 0.457031 18.839844 0.457031 C 27.964844 0.457031 35.402344 -6.660156 35.402344 -15.921875 C 35.402344 -25.320312 27.964844 -32.4375 18.839844 -32.4375 C 9.71875 -32.4375 2.328125 -25.320312 2.328125 -15.921875 Z M 10.082031 -15.921875 C 10.082031 -21.988281 14.460938 -24.957031 18.839844 -24.957031 C 23.222656 -24.957031 27.554688 -21.945312 27.554688 -15.921875 C 27.554688 -9.945312 23.128906 -6.933594 18.75 -6.933594 C 14.371094 -6.933594 10.082031 -9.898438 10.082031 -15.921875 Z M 10.082031 -15.921875 "/></g></g></g><g fill="#333333" fill-opacity="1"><g transform="translate(356.889081, 44.745106)"><g><path d="M 2.28125 -31.933594 L 2.28125 0 L 23.496094 0 L 23.496094 -7.527344 L 10.082031 -7.527344 L 10.082031 -31.933594 Z M 2.28125 -31.933594 "/></g></g></g><g fill="#333333" fill-opacity="1"><g transform="translate(380.155839, 44.745106)"><g><path d="M 2.28125 -32.207031 L 2.28125 0 L 23.359375 0 L 23.359375 -7.527344 L 10.128906 -7.527344 L 10.128906 -12.636719 L 23.039062 -12.636719 L 23.039062 -20.210938 L 10.128906 -20.210938 L 10.128906 -24.679688 L 23.3125 -24.679688 L 23.3125 -32.207031 Z M 2.28125 -32.207031 "/></g></g></g><g fill="#333333" fill-opacity="1"><g transform="translate(403.741946, 44.745106)"><g><path d="M 0.226562 -19.570312 L 0.226562 -12.546875 L 14.28125 -12.546875 L 14.28125 -19.570312 Z M 0.226562 -19.570312 "/></g></g></g><g fill="#333333" fill-opacity="1"><g transform="translate(419.526728, 44.745106)"><g><path d="M 20.347656 0 L 20.347656 -6.980469 L 15.054688 -6.980469 L 15.054688 -25 L 20.347656 -25 L 20.347656 -32.117188 L 1.960938 -32.117188 L 1.960938 -25 L 7.253906 -25 L 7.253906 -6.980469 L 1.960938 -6.980469 L 1.960938 0 Z M 20.347656 0 "/></g></g></g><g fill="#333333" fill-opacity="1"><g transform="translate(439.736816, 44.745106)"><g><path d="M 19.34375 -31.933594 L 19.34375 -15.96875 L 8.304688 -31.933594 L 2.28125 -31.933594 L 2.28125 0 L 10.035156 0 L 10.035156 -15.558594 L 20.941406 0 L 27.054688 0 L 27.054688 -31.933594 Z M 19.34375 -31.933594 "/></g></g></g><g fill="#333333" fill-opacity="1"><g transform="translate(467.337629, 44.745106)"><g><path d="M 17.792969 -24.773438 C 20.710938 -24.773438 24.40625 -23.496094 25.546875 -18.933594 L 33.761719 -18.933594 C 32.4375 -28.96875 23.996094 -32.390625 17.792969 -32.390625 C 8.757812 -32.390625 1.640625 -25.503906 1.640625 -15.921875 C 1.640625 -6.386719 8.578125 0.5 17.792969 0.5 C 23.769531 0.5 30.476562 -3.558594 32.710938 -9.671875 C 33.210938 -10.859375 33.851562 -13.183594 33.851562 -16.878906 L 14.324219 -16.878906 L 14.324219 -9.898438 L 24.089844 -9.898438 C 22.398438 -7.617188 19.9375 -6.933594 17.792969 -6.933594 C 13.09375 -6.933594 9.535156 -10.492188 9.535156 -15.921875 C 9.535156 -21.078125 13.09375 -24.773438 17.792969 -24.773438 Z M 17.792969 -24.773438 "/></g></g></g><g fill="#333333" fill-opacity="1"><g transform="translate(196.849664, 86.543828)"><g><path d="M 15.601562 -31.933594 L 3.921875 -31.933594 L 3.921875 0 L 8.578125 0 L 8.578125 -10.628906 L 15.601562 -10.628906 C 22.492188 -10.628906 25.957031 -15.921875 25.957031 -21.257812 C 25.957031 -26.597656 22.492188 -31.933594 15.601562 -31.933594 Z M 15.601562 -15.191406 L 8.578125 -15.191406 L 8.578125 -27.28125 L 15.601562 -27.28125 C 19.480469 -27.28125 21.398438 -24.269531 21.398438 -21.214844 C 21.398438 -18.203125 19.480469 -15.191406 15.601562 -15.191406 Z M 15.601562 -15.191406 "/></g></g></g><g fill="#333333" fill-opacity="1"><g transform="translate(222.078154, 86.543828)"><g><path d="M 7.890625 -8.074219 L 20.847656 -8.074219 L 23.90625 0 L 28.832031 0 L 16.011719 -32.347656 L 12.636719 -32.347656 L -0.183594 0 L 4.789062 0 Z M 19.160156 -12.410156 L 9.582031 -12.410156 L 14.371094 -25 Z M 19.160156 -12.410156 "/></g></g></g><g fill="#333333" fill-opacity="1"><g transform="translate(249.131524, 86.543828)"><g><path d="M 19.890625 -23.675781 L 24.453125 -23.859375 C 23.632812 -29.699219 18.523438 -32.253906 13.59375 -32.253906 C 9.898438 -32.253906 6.066406 -30.792969 3.921875 -28.011719 C 2.738281 -26.460938 2.144531 -24.636719 2.144531 -22.71875 C 2.144531 -22.492188 2.191406 -22.21875 2.191406 -21.945312 L 2.191406 -21.988281 C 2.691406 -15.328125 8.53125 -14.234375 13.503906 -13.730469 C 16.699219 -13.414062 19.980469 -13.003906 20.53125 -10.585938 C 20.621094 -10.171875 20.667969 -9.808594 20.667969 -9.488281 C 20.667969 -6.203125 16.925781 -4.289062 13.503906 -4.289062 C 10.539062 -4.289062 6.933594 -5.839844 6.613281 -8.804688 L 6.613281 -8.621094 L 6.570312 -9.308594 L 1.917969 -9.214844 L 1.960938 -8.347656 C 2.554688 -2.644531 8.53125 0.273438 13.457031 0.273438 C 19.207031 0.273438 25.320312 -3.285156 25.320312 -9.445312 C 25.320312 -10.082031 25.230469 -10.859375 25.09375 -11.542969 C 23.859375 -16.652344 18.429688 -17.792969 14.050781 -18.339844 C 10.492188 -18.660156 6.796875 -19.117188 6.796875 -22.8125 C 6.796875 -23.722656 7.027344 -24.636719 7.574219 -25.320312 C 8.894531 -27.007812 11.3125 -27.738281 13.503906 -27.738281 C 16.242188 -27.738281 19.253906 -26.507812 19.890625 -23.675781 Z M 19.890625 -23.675781 "/></g></g></g><g fill="#333333" fill-opacity="1"><g transform="translate(274.405638, 86.543828)"><g><path d="M 19.890625 -23.675781 L 24.453125 -23.859375 C 23.632812 -29.699219 18.523438 -32.253906 13.59375 -32.253906 C 9.898438 -32.253906 6.066406 -30.792969 3.921875 -28.011719 C 2.738281 -26.460938 2.144531 -24.636719 2.144531 -22.71875 C 2.144531 -22.492188 2.191406 -22.21875 2.191406 -21.945312 L 2.191406 -21.988281 C 2.691406 -15.328125 8.53125 -14.234375 13.503906 -13.730469 C 16.699219 -13.414062 19.980469 -13.003906 20.53125 -10.585938 C 20.621094 -10.171875 20.667969 -9.808594 20.667969 -9.488281 C 20.667969 -6.203125 16.925781 -4.289062 13.503906 -4.289062 C 10.539062 -4.289062 6.933594 -5.839844 6.613281 -8.804688 L 6.613281 -8.621094 L 6.570312 -9.308594 L 1.917969 -9.214844 L 1.960938 -8.347656 C 2.554688 -2.644531 8.53125 0.273438 13.457031 0.273438 C 19.207031 0.273438 25.320312 -3.285156 25.320312 -9.445312 C 25.320312 -10.082031 25.230469 -10.859375 25.09375 -11.542969 C 23.859375 -16.652344 18.429688 -17.792969 14.050781 -18.339844 C 10.492188 -18.660156 6.796875 -19.117188 6.796875 -22.8125 C 6.796875 -23.722656 7.027344 -24.636719 7.574219 -25.320312 C 8.894531 -27.007812 11.3125 -27.738281 13.503906 -27.738281 C 16.242188 -27.738281 19.253906 -26.507812 19.890625 -23.675781 Z M 19.890625 -23.675781 "/></g></g></g><g fill="#333333" fill-opacity="1"><g transform="translate(299.679756, 86.543828)"><g><path d="M 14.460938 -27.964844 L 20.394531 -27.964844 L 20.394531 -32.207031 L 3.921875 -32.207031 L 3.921875 -27.964844 L 9.855469 -27.964844 L 9.855469 -4.289062 L 3.921875 -4.289062 L 3.921875 0 L 20.394531 0 L 20.394531 -4.289062 L 14.460938 -4.289062 Z M 14.460938 -27.964844 "/></g></g></g><g fill="#333333" fill-opacity="1"><g transform="translate(322.079708, 86.543828)"><g><path d="M 1.597656 -15.96875 C 1.597656 -6.753906 8.941406 0.59375 18.15625 0.59375 C 27.375 0.59375 34.765625 -6.753906 34.765625 -15.96875 C 34.765625 -25.183594 27.375 -32.574219 18.15625 -32.574219 C 8.941406 -32.574219 1.597656 -25.183594 1.597656 -15.96875 Z M 6.339844 -15.96875 C 6.339844 -22.539062 11.589844 -27.828125 18.15625 -27.828125 C 24.726562 -27.828125 30.019531 -22.539062 30.019531 -15.96875 C 30.019531 -9.398438 24.726562 -4.152344 18.15625 -4.152344 C 11.589844 -4.152344 6.339844 -9.398438 6.339844 -15.96875 Z M 6.339844 -15.96875 "/></g></g></g><g fill="#333333" fill-opacity="1"><g transform="translate(356.888756, 86.543828)"><g><path d="M 3.921875 -31.933594 L 3.921875 0 L 8.53125 0 L 8.53125 -22.308594 L 23.953125 0 L 27.601562 0 L 27.601562 -31.933594 L 23.039062 -31.933594 L 23.039062 -9.445312 L 7.480469 -31.933594 Z M 3.921875 -31.933594 "/></g></g></g><g fill="#333333" fill-opacity="1"><g transform="translate(386.542546, 86.543828)"><g><path d="M 19.890625 -23.675781 L 24.453125 -23.859375 C 23.632812 -29.699219 18.523438 -32.253906 13.59375 -32.253906 C 9.898438 -32.253906 6.066406 -30.792969 3.921875 -28.011719 C 2.738281 -26.460938 2.144531 -24.636719 2.144531 -22.71875 C 2.144531 -22.492188 2.191406 -22.21875 2.191406 -21.945312 L 2.191406 -21.988281 C 2.691406 -15.328125 8.53125 -14.234375 13.503906 -13.730469 C 16.699219 -13.414062 19.980469 -13.003906 20.53125 -10.585938 C 20.621094 -10.171875 20.667969 -9.808594 20.667969 -9.488281 C 20.667969 -6.203125 16.925781 -4.289062 13.503906 -4.289062 C 10.539062 -4.289062 6.933594 -5.839844 6.613281 -8.804688 L 6.613281 -8.621094 L 6.570312 -9.308594 L 1.917969 -9.214844 L 1.960938 -8.347656 C 2.554688 -2.644531 8.53125 0.273438 13.457031 0.273438 C 19.207031 0.273438 25.320312 -3.285156 25.320312 -9.445312 C 25.320312 -10.082031 25.230469 -10.859375 25.09375 -11.542969 C 23.859375 -16.652344 18.429688 -17.792969 14.050781 -18.339844 C 10.492188 -18.660156 6.796875 -19.117188 6.796875 -22.8125 C 6.796875 -23.722656 7.027344 -24.636719 7.574219 -25.320312 C 8.894531 -27.007812 11.3125 -27.738281 13.503906 -27.738281 C 16.242188 -27.738281 19.253906 -26.507812 19.890625 -23.675781 Z M 19.890625 -23.675781 "/></g></g></g><g clip-path="url(#37f1e60725)"><path fill="#68bac2" d="M 194.535156 85.683594 L 194.535156 83.710938 L 192.570312 83.710938 L 192.570312 81.738281 L 188.640625 81.738281 L 188.640625 79.765625 L 186.675781 79.765625 L 186.675781 75.824219 L 182.746094 75.824219 L 182.746094 71.878906 L 180.78125 71.878906 L 180.78125 69.90625 L 178.816406 69.90625 L 178.816406 65.964844 L 176.851562 65.964844 L 176.851562 63.992188 L 174.886719 63.992188 L 174.886719 60.046875 L 172.921875 60.046875 L 172.921875 58.074219 L 168.988281 58.074219 L 168.988281 56.105469 L 167.023438 56.105469 L 167.023438 54.132812 L 165.058594 54.132812 L 165.058594 52.160156 L 163.09375 52.160156 L 163.09375 50.1875 L 161.128906 50.1875 L 161.128906 48.214844 L 153.269531 48.214844 L 153.269531 50.1875 L 151.304688 50.1875 L 151.304688 52.160156 L 149.339844 52.160156 L 149.339844 56.105469 L 147.375 56.105469 L 147.375 58.074219 L 143.445312 58.074219 L 143.445312 60.046875 L 137.550781 60.046875 L 137.550781 56.105469 L 133.621094 56.105469 L 133.621094 54.132812 L 129.691406 54.132812 L 129.691406 52.160156 L 125.761719 52.160156 L 125.761719 50.1875 L 121.828125 50.1875 L 121.828125 48.214844 L 119.863281 48.214844 L 119.863281 44.273438 L 115.933594 44.273438 L 115.933594 40.328125 L 113.96875 40.328125 L 113.96875 36.382812 L 112.003906 36.382812 L 112.003906 32.441406 L 108.074219 32.441406 L 108.074219 30.46875 L 104.144531 30.46875 L 104.144531 28.496094 L 102.179688 28.496094 L 102.179688 26.523438 L 100.214844 26.523438 L 100.214844 24.554688 L 98.25 24.554688 L 98.25 22.582031 L 90.390625 22.582031 L 90.390625 24.554688 L 88.425781 24.554688 L 88.425781 26.523438 L 86.460938 26.523438 L 86.460938 28.496094 L 82.53125 28.496094 L 82.53125 32.441406 L 80.566406 32.441406 L 80.566406 34.414062 L 76.636719 34.414062 L 76.636719 38.355469 L 74.671875 38.355469 L 74.671875 42.300781 L 70.738281 42.300781 L 70.738281 46.246094 L 66.808594 46.246094 L 66.808594 48.214844 L 64.84375 48.214844 L 64.84375 50.1875 L 62.878906 50.1875 L 62.878906 52.160156 L 60.914062 52.160156 L 60.914062 54.132812 L 56.984375 54.132812 L 56.984375 52.160156 L 55.019531 52.160156 L 55.019531 50.1875 L 51.089844 50.1875 L 51.089844 52.160156 L 49.125 52.160156 L 49.125 54.132812 L 47.160156 54.132812 L 47.160156 58.074219 L 43.230469 58.074219 L 43.230469 60.046875 L 41.265625 60.046875 L 41.265625 62.019531 L 37.335938 62.019531 L 37.335938 60.046875 L 29.476562 60.046875 L 29.476562 62.019531 L 27.511719 62.019531 L 27.511719 63.992188 L 25.546875 63.992188 L 25.546875 65.964844 L 21.613281 65.964844 L 21.613281 69.90625 L 19.648438 69.90625 L 19.648438 73.851562 L 15.71875 73.851562 L 15.71875 75.824219 L 13.753906 75.824219 L 13.753906 77.796875 L 11.789062 77.796875 L 11.789062 79.765625 L 5.894531 79.765625 L 5.894531 81.738281 L 3.929688 81.738281 L 3.929688 83.710938 L 1.964844 83.710938 L 1.964844 85.683594 L 0 85.683594 L 0 87.65625 L 196.5 87.65625 L 196.5 85.683594 Z M 194.535156 85.683594 " fill-opacity="1" fill-rule="nonzero"/><path fill="#7caac9" d="M 194.535156 85.683594 L 194.535156 83.710938 L 192.570312 83.710938 L 192.570312 81.738281 L 188.640625 81.738281 L 188.640625 79.765625 L 186.675781 79.765625 L 186.675781 75.824219 L 182.746094 75.824219 L 182.746094 71.878906 L 180.78125 71.878906 L 180.78125 69.90625 L 178.816406 69.90625 L 178.816406 65.964844 L 176.851562 65.964844 L 176.851562 63.992188 L 174.886719 63.992188 L 174.886719 60.046875 L 172.921875 60.046875 L 172.921875 58.074219 L 168.988281 58.074219 L 168.988281 56.105469 L 167.023438 56.105469 L 167.023438 54.132812 L 165.058594 54.132812 L 165.058594 52.160156 L 163.09375 52.160156 L 163.09375 50.1875 L 161.128906 50.1875 L 161.128906 48.214844 L 153.269531 48.214844 L 153.269531 50.1875 L 151.304688 50.1875 L 151.304688 52.160156 L 149.339844 52.160156 L 149.339844 56.105469 L 147.375 56.105469 L 147.375 58.074219 L 143.445312 58.074219 L 143.445312 60.046875 L 137.550781 60.046875 L 137.550781 56.105469 L 133.621094 56.105469 L 133.621094 54.132812 L 129.691406 54.132812 L 129.691406 52.160156 L 125.761719 52.160156 L 125.761719 50.1875 L 121.828125 50.1875 L 121.828125 48.214844 L 119.863281 48.214844 L 119.863281 44.273438 L 115.933594 44.273438 L 115.933594 40.328125 L 113.96875 40.328125 L 113.96875 36.382812 L 112.003906 36.382812 L 112.003906 32.441406 L 108.074219 32.441406 L 108.074219 30.46875 L 104.144531 30.46875 L 104.144531 28.496094 L 102.179688 28.496094 L 102.179688 26.523438 L 100.214844 26.523438 L 100.214844 24.554688 L 98.25 24.554688 L 98.25 22.582031 L 90.390625 22.582031 L 90.390625 24.554688 L 88.425781 24.554688 L 88.425781 26.523438 L 86.460938 26.523438 L 86.460938 28.496094 L 82.53125 28.496094 L 82.53125 32.441406 L 80.566406 32.441406 L 80.566406 34.414062 L 76.636719 34.414062 L 76.636719 38.355469 L 74.671875 38.355469 L 74.671875 42.300781 L 70.738281 42.300781 L 70.738281 46.246094 L 66.808594 46.246094 L 66.808594 48.214844 L 64.84375 48.214844 L 64.84375 50.1875 L 62.878906 50.1875 L 62.878906 52.160156 L 60.914062 52.160156 L 60.914062 54.132812 L 56.984375 54.132812 L 56.984375 52.160156 L 55.019531 52.160156 L 55.019531 50.1875 L 51.089844 50.1875 L 51.089844 52.160156 L 49.125 52.160156 L 49.125 54.132812 L 47.160156 54.132812 L 47.160156 58.074219 L 43.230469 58.074219 L 43.230469 60.046875 L 41.265625 60.046875 L 41.265625 62.019531 L 37.335938 62.019531 L 37.335938 60.046875 L 29.476562 60.046875 L 29.476562 62.019531 L 27.511719 62.019531 L 27.511719 63.992188 L 25.546875 63.992188 L 25.546875 65.964844 L 21.613281 65.964844 L 21.613281 69.90625 L 19.648438 69.90625 L 19.648438 73.851562 L 15.71875 73.851562 L 15.71875 75.824219 L 13.753906 75.824219 L 13.753906 79.765625 L 5.894531 79.765625 L 5.894531 81.738281 L 3.929688 81.738281 L 3.929688 83.710938 L 1.964844 83.710938 L 1.964844 85.683594 L 0 85.683594 L 0 87.65625 L 196.5 87.65625 L 196.5 85.683594 Z M 194.535156 85.683594 " fill-opacity="1" fill-rule="nonzero"/></g><g clip-path="url(#2d88492d09)"><path fill="#128f8b" d="M 37.335938 83.710938 L 33.40625 83.710938 L 33.40625 81.738281 L 31.441406 81.738281 L 31.441406 79.765625 L 29.476562 79.765625 L 29.476562 75.824219 L 27.511719 75.824219 L 27.511719 71.878906 L 25.546875 71.878906 L 25.546875 69.90625 L 23.578125 69.90625 L 23.578125 67.9375 L 25.546875 67.9375 L 25.546875 65.964844 L 21.613281 65.964844 L 21.613281 69.90625 L 19.648438 69.90625 L 19.648438 73.851562 L 15.71875 73.851562 L 15.71875 75.824219 L 13.753906 75.824219 L 13.753906 77.796875 L 11.789062 77.796875 L 11.789062 79.765625 L 5.894531 79.765625 L 5.894531 81.738281 L 3.929688 81.738281 L 3.929688 83.710938 L 1.964844 83.710938 L 1.964844 85.683594 L 0 85.683594 L 0 87.65625 L 7.859375 87.65625 L 7.859375 85.683594 L 9.824219 85.683594 L 9.824219 83.710938 L 13.753906 83.710938 L 13.753906 81.738281 L 17.683594 81.738281 L 17.683594 79.765625 L 19.648438 79.765625 L 19.648438 81.738281 L 17.683594 81.738281 L 17.683594 85.683594 L 19.648438 85.683594 L 19.648438 83.710938 L 21.613281 83.710938 L 21.613281 79.765625 L 23.578125 79.765625 L 23.578125 77.796875 L 25.546875 77.796875 L 25.546875 79.765625 L 27.511719 79.765625 L 27.511719 81.738281 L 29.476562 81.738281 L 29.476562 83.710938 L 31.441406 83.710938 L 31.441406 87.65625 L 39.300781 87.65625 L 39.300781 85.683594 L 37.335938 85.683594 Z M 37.335938 83.710938 " fill-opacity="1" fill-rule="nonzero"/></g><g clip-path="url(#e6b94a6fe3)"><path fill="#128f8b" d="M 22.792969 87.65625 L 25.546875 87.65625 L 25.546875 85.683594 L 23.578125 85.683594 L 23.578125 83.710938 L 21.613281 83.710938 L 21.613281 87.65625 Z M 22.792969 87.65625 " fill-opacity="1" fill-rule="nonzero"/></g><path fill="#128f8b" d="M 43.230469 73.851562 L 45.195312 73.851562 L 45.195312 75.824219 L 43.230469 75.824219 Z M 43.230469 73.851562 " fill-opacity="1" fill-rule="nonzero"/><g clip-path="url(#79923febf3)"><path fill="#128f8b" d="M 90.390625 24.554688 L 88.425781 24.554688 L 88.425781 26.523438 L 86.460938 26.523438 L 86.460938 28.496094 L 82.53125 28.496094 L 82.53125 32.441406 L 80.566406 32.441406 L 80.566406 34.414062 L 76.636719 34.414062 L 76.636719 38.355469 L 74.671875 38.355469 L 74.671875 42.300781 L 70.738281 42.300781 L 70.738281 46.246094 L 66.808594 46.246094 L 66.808594 48.214844 L 64.84375 48.214844 L 64.84375 50.1875 L 62.878906 50.1875 L 62.878906 52.160156 L 60.914062 52.160156 L 60.914062 54.132812 L 56.984375 54.132812 L 56.984375 56.105469 L 55.019531 56.105469 L 55.019531 58.074219 L 53.054688 58.074219 L 53.054688 60.046875 L 49.125 60.046875 L 49.125 62.019531 L 47.160156 62.019531 L 47.160156 65.964844 L 43.230469 65.964844 L 43.230469 63.992188 L 45.195312 63.992188 L 45.195312 62.019531 L 47.160156 62.019531 L 47.160156 60.046875 L 49.125 60.046875 L 49.125 56.105469 L 51.089844 56.105469 L 51.089844 54.132812 L 53.054688 54.132812 L 53.054688 50.1875 L 51.089844 50.1875 L 51.089844 52.160156 L 49.125 52.160156 L 49.125 54.132812 L 47.160156 54.132812 L 47.160156 58.074219 L 43.230469 58.074219 L 43.230469 60.046875 L 41.265625 60.046875 L 41.265625 62.019531 L 37.335938 62.019531 L 37.335938 63.992188 L 39.300781 63.992188 L 39.300781 65.964844 L 41.265625 65.964844 L 41.265625 69.90625 L 43.230469 69.90625 L 43.230469 71.878906 L 45.195312 71.878906 L 45.195312 73.851562 L 47.160156 73.851562 L 47.160156 75.824219 L 49.125 75.824219 L 49.125 77.796875 L 51.089844 77.796875 L 51.089844 79.765625 L 55.019531 79.765625 L 55.019531 83.710938 L 56.984375 83.710938 L 56.984375 85.683594 L 58.949219 85.683594 L 58.949219 87.65625 L 90.664062 87.65625 L 90.664062 85.683594 L 88.464844 85.683594 L 88.464844 83.710938 L 90.390625 83.710938 L 90.390625 81.738281 L 88.425781 81.738281 L 88.425781 83.710938 L 86.460938 83.710938 L 86.460938 79.765625 L 84.417969 79.765625 L 84.417969 77.796875 L 80.566406 77.796875 L 80.566406 75.824219 L 78.601562 75.824219 L 78.601562 71.878906 L 76.398438 71.878906 L 76.398438 69.90625 L 74.671875 69.90625 L 74.671875 67.9375 L 72.703125 67.9375 L 72.703125 65.964844 L 70.738281 65.964844 L 70.738281 69.90625 L 66.808594 69.90625 L 66.808594 71.878906 L 64.84375 71.878906 L 64.84375 67.9375 L 68.773438 67.9375 L 68.773438 65.964844 L 66.808594 65.964844 L 66.808594 63.992188 L 68.773438 63.992188 L 68.773438 62.019531 L 70.738281 62.019531 L 70.738281 60.046875 L 74.671875 60.046875 L 74.671875 58.074219 L 72.703125 58.074219 L 72.703125 56.105469 L 76.636719 56.105469 L 76.636719 54.132812 L 78.601562 54.132812 L 78.601562 52.160156 L 76.636719 52.160156 L 76.636719 50.1875 L 80.566406 50.1875 L 80.566406 48.214844 L 78.601562 48.214844 L 78.601562 46.246094 L 80.566406 46.246094 L 80.566406 44.273438 L 78.601562 44.273438 L 78.601562 42.300781 L 80.566406 42.300781 L 80.566406 38.355469 L 82.53125 38.355469 L 82.53125 36.382812 L 86.460938 36.382812 L 86.460938 38.355469 L 88.425781 38.355469 L 88.425781 34.414062 L 86.460938 34.414062 L 86.460938 32.441406 L 88.425781 32.441406 L 88.425781 30.46875 L 92.355469 30.46875 L 92.355469 28.496094 L 90.390625 28.496094 L 90.390625 26.523438 L 92.355469 26.523438 L 92.355469 22.582031 L 90.390625 22.582031 Z M 90.390625 24.554688 " fill-opacity="1" fill-rule="nonzero"/></g><g clip-path="url(#44f389c7cd)"><path fill="#128f8b" d="M 176.851562 83.710938 L 172.921875 83.710938 L 172.921875 81.738281 L 168.988281 81.738281 L 168.988281 79.765625 L 167.023438 79.765625 L 167.023438 77.796875 L 163.09375 77.796875 L 163.09375 75.824219 L 161.128906 75.824219 L 161.128906 73.851562 L 159.164062 73.851562 L 159.164062 71.878906 L 157.199219 71.878906 L 157.199219 69.90625 L 155.234375 69.90625 L 155.234375 67.9375 L 153.269531 67.9375 L 153.269531 65.964844 L 149.339844 65.964844 L 149.339844 63.992188 L 147.375 63.992188 L 147.375 62.019531 L 149.339844 62.019531 L 149.339844 60.046875 L 151.304688 60.046875 L 151.304688 58.074219 L 153.269531 58.074219 L 153.269531 54.132812 L 155.234375 54.132812 L 155.234375 50.1875 L 157.199219 50.1875 L 157.199219 48.214844 L 153.269531 48.214844 L 153.269531 50.1875 L 151.304688 50.1875 L 151.304688 52.160156 L 149.339844 52.160156 L 149.339844 56.105469 L 147.375 56.105469 L 147.375 58.074219 L 143.445312 58.074219 L 143.445312 60.046875 L 137.550781 60.046875 L 137.550781 62.019531 L 139.515625 62.019531 L 139.515625 63.992188 L 141.480469 63.992188 L 141.480469 65.964844 L 143.445312 65.964844 L 143.445312 67.9375 L 147.375 67.9375 L 147.375 69.90625 L 149.339844 69.90625 L 149.339844 71.878906 L 151.304688 71.878906 L 151.304688 75.824219 L 153.269531 75.824219 L 153.269531 73.851562 L 155.234375 73.851562 L 155.234375 75.824219 L 157.199219 75.824219 L 157.199219 79.765625 L 159.164062 79.765625 L 159.164062 81.738281 L 161.128906 81.738281 L 161.128906 83.710938 L 163.09375 83.710938 L 163.09375 85.683594 L 167.023438 85.683594 L 167.023438 87.65625 L 180.742188 87.65625 L 180.742188 85.683594 L 176.851562 85.683594 Z M 176.851562 83.710938 " fill-opacity="1" fill-rule="nonzero"/></g><g clip-path="url(#5922f2f79d)"><path fill="#128f8b" d="M 129.691406 83.710938 L 129.691406 81.738281 L 127.726562 81.738281 L 127.726562 83.710938 L 125.761719 83.710938 L 125.761719 81.738281 L 123.796875 81.738281 L 123.796875 79.765625 L 121.828125 79.765625 L 121.828125 81.738281 L 119.863281 81.738281 L 119.863281 79.765625 L 121.828125 79.765625 L 121.828125 75.824219 L 119.863281 75.824219 L 119.863281 77.796875 L 117.898438 77.796875 L 117.898438 75.824219 L 115.933594 75.824219 L 115.933594 73.851562 L 113.96875 73.851562 L 113.96875 69.90625 L 112.003906 69.90625 L 112.003906 71.878906 L 110.039062 71.878906 L 110.039062 67.9375 L 108.074219 67.9375 L 108.074219 65.964844 L 106.109375 65.964844 L 106.109375 63.992188 L 104.144531 63.992188 L 104.144531 62.019531 L 102.179688 62.019531 L 102.179688 67.9375 L 104.144531 67.9375 L 104.144531 69.90625 L 102.179688 69.90625 L 102.179688 73.851562 L 104.144531 73.851562 L 104.144531 77.796875 L 106.109375 77.796875 L 106.109375 79.765625 L 108.074219 79.765625 L 108.074219 81.738281 L 106.109375 81.738281 L 106.109375 83.710938 L 108.074219 83.710938 L 108.074219 85.683594 L 106.109375 85.683594 L 106.109375 87.65625 L 131.65625 87.65625 L 131.65625 85.683594 L 129.691406 85.683594 Z M 129.691406 83.710938 " fill-opacity="1" fill-rule="nonzero"/></g><path fill="#128f8b" d="M 100.214844 60.046875 L 102.179688 60.046875 L 102.179688 62.019531 L 100.214844 62.019531 Z M 100.214844 60.046875 " fill-opacity="1" fill-rule="nonzero"/><path fill="#128f8b" d="M 88.425781 32.441406 L 90.390625 32.441406 L 90.390625 34.414062 L 88.425781 34.414062 Z M 88.425781 32.441406 " fill-opacity="1" fill-rule="nonzero"/><path fill="#128f8b" d="M 82.53125 38.355469 L 84.496094 38.355469 L 84.496094 40.328125 L 82.53125 40.328125 Z M 82.53125 38.355469 " fill-opacity="1" fill-rule="nonzero"/><path fill="#128f8b" d="M 80.566406 42.300781 L 82.53125 42.300781 L 82.53125 44.273438 L 80.566406 44.273438 Z M 80.566406 42.300781 " fill-opacity="1" fill-rule="nonzero"/><path fill="#128f8b" d="M 84.496094 40.328125 L 86.460938 40.328125 L 86.460938 42.300781 L 84.496094 42.300781 Z M 84.496094 40.328125 " fill-opacity="1" fill-rule="nonzero"/><path fill="#128f8b" d="M 80.566406 46.246094 L 82.53125 46.246094 L 82.53125 48.214844 L 80.566406 48.214844 Z M 80.566406 46.246094 " fill-opacity="1" fill-rule="nonzero"/><path fill="#128f8b" d="M 78.601562 54.132812 L 80.566406 54.132812 L 80.566406 56.105469 L 78.601562 56.105469 Z M 78.601562 54.132812 " fill-opacity="1" fill-rule="nonzero"/><path fill="#128f8b" d="M 76.636719 56.105469 L 78.601562 56.105469 L 78.601562 58.074219 L 76.636719 58.074219 Z M 76.636719 56.105469 " fill-opacity="1" fill-rule="nonzero"/><path fill="#128f8b" d="M 70.738281 62.019531 L 72.703125 62.019531 L 72.703125 63.992188 L 70.738281 63.992188 Z M 70.738281 62.019531 " fill-opacity="1" fill-rule="nonzero"/><path fill="#128f8b" d="M 74.671875 60.046875 L 76.636719 60.046875 L 76.636719 62.019531 L 74.671875 62.019531 Z M 74.671875 60.046875 " fill-opacity="1" fill-rule="nonzero"/><path fill="#128f8b" d="M 68.773438 63.992188 L 70.738281 63.992188 L 70.738281 65.964844 L 68.773438 65.964844 Z M 68.773438 63.992188 " fill-opacity="1" fill-rule="nonzero"/><path fill="#128f8b" d="M 78.601562 69.90625 L 80.566406 69.90625 L 80.566406 71.878906 L 78.601562 71.878906 Z M 78.601562 69.90625 " fill-opacity="1" fill-rule="nonzero"/><path fill="#128f8b" d="M 76.636719 67.9375 L 78.601562 67.9375 L 78.601562 69.90625 L 76.636719 69.90625 Z M 76.636719 67.9375 " fill-opacity="1" fill-rule="nonzero"/><path fill="#128f8b" d="M 80.566406 73.851562 L 82.53125 73.851562 L 82.53125 75.824219 L 80.566406 75.824219 Z M 80.566406 73.851562 " fill-opacity="1" fill-rule="nonzero"/><path fill="#128f8b" d="M 82.53125 71.878906 L 84.496094 71.878906 L 84.496094 73.851562 L 82.53125 73.851562 Z M 82.53125 71.878906 " fill-opacity="1" fill-rule="nonzero"/><path fill="#128f8b" d="M 84.496094 75.824219 L 86.460938 75.824219 L 86.460938 77.796875 L 84.496094 77.796875 Z M 84.496094 75.824219 " fill-opacity="1" fill-rule="nonzero"/><path fill="#128f8b" d="M 100.214844 67.9375 L 102.179688 67.9375 L 102.179688 69.90625 L 100.214844 69.90625 Z M 100.214844 67.9375 " fill-opacity="1" fill-rule="nonzero"/><path fill="#128f8b" d="M 104.144531 60.046875 L 106.109375 60.046875 L 106.109375 62.019531 L 104.144531 62.019531 Z M 104.144531 60.046875 " fill-opacity="1" fill-rule="nonzero"/><path fill="#128f8b" d="M 110.039062 65.964844 L 112.003906 65.964844 L 112.003906 67.9375 L 110.039062 67.9375 Z M 110.039062 65.964844 " fill-opacity="1" fill-rule="nonzero"/><path fill="#128f8b" d="M 115.933594 71.878906 L 117.898438 71.878906 L 117.898438 73.851562 L 115.933594 73.851562 Z M 115.933594 71.878906 " fill-opacity="1" fill-rule="nonzero"/><path fill="#128f8b" d="M 117.898438 73.851562 L 119.863281 73.851562 L 119.863281 75.824219 L 117.898438 75.824219 Z M 117.898438 73.851562 " fill-opacity="1" fill-rule="nonzero"/><path fill="#128f8b" d="M 125.761719 79.765625 L 127.726562 79.765625 L 127.726562 81.738281 L 125.761719 81.738281 Z M 125.761719 79.765625 " fill-opacity="1" fill-rule="nonzero"/><path fill="#128f8b" d="M 131.65625 83.710938 L 133.621094 83.710938 L 133.621094 85.683594 L 131.65625 85.683594 Z M 131.65625 83.710938 " fill-opacity="1" fill-rule="nonzero"/><g clip-path="url(#4eb085f159)"><path fill="#128f8b" d="M 133.621094 85.683594 L 135.46875 85.683594 L 135.46875 87.65625 L 133.621094 87.65625 Z M 133.621094 85.683594 " fill-opacity="1" fill-rule="nonzero"/></g><path fill="#128f8b" d="M 100.214844 73.851562 L 102.179688 73.851562 L 102.179688 75.824219 L 100.214844 75.824219 Z M 100.214844 73.851562 " fill-opacity="1" fill-rule="nonzero"/><path fill="#128f8b" d="M 102.179688 77.796875 L 104.144531 77.796875 L 104.144531 79.765625 L 102.179688 79.765625 Z M 102.179688 77.796875 " fill-opacity="1" fill-rule="nonzero"/><path fill="#128f8b" d="M 104.144531 79.765625 L 106.109375 79.765625 L 106.109375 81.738281 L 104.144531 81.738281 Z M 104.144531 79.765625 " fill-opacity="1" fill-rule="nonzero"/><path fill="#128f8b" d="M 102.179688 83.710938 L 104.144531 83.710938 L 104.144531 85.683594 L 102.179688 85.683594 Z M 102.179688 83.710938 " fill-opacity="1" fill-rule="nonzero"/><path fill="#128f8b" d="M 25.546875 67.9375 L 27.511719 67.9375 L 27.511719 69.90625 L 25.546875 69.90625 Z M 25.546875 67.9375 " fill-opacity="1" fill-rule="nonzero"/><path fill="#128f8b" d="M 29.476562 73.851562 L 31.441406 73.851562 L 31.441406 75.824219 L 29.476562 75.824219 Z M 29.476562 73.851562 " fill-opacity="1" fill-rule="nonzero"/><path fill="#128f8b" d="M 27.511719 69.90625 L 29.476562 69.90625 L 29.476562 71.878906 L 27.511719 71.878906 Z M 27.511719 69.90625 " fill-opacity="1" fill-rule="nonzero"/><path fill="#128f8b" d="M 31.441406 77.796875 L 33.40625 77.796875 L 33.40625 79.765625 L 31.441406 79.765625 Z M 31.441406 77.796875 " fill-opacity="1" fill-rule="nonzero"/><path fill="#128f8b" d="M 31.441406 71.878906 L 33.40625 71.878906 L 33.40625 73.851562 L 31.441406 73.851562 Z M 31.441406 71.878906 " fill-opacity="1" fill-rule="nonzero"/><path fill="#128f8b" d="M 33.40625 79.765625 L 35.371094 79.765625 L 35.371094 81.738281 L 33.40625 81.738281 Z M 33.40625 79.765625 " fill-opacity="1" fill-rule="nonzero"/><path fill="#128f8b" d="M 37.335938 81.738281 L 39.300781 81.738281 L 39.300781 83.710938 L 37.335938 83.710938 Z M 37.335938 81.738281 " fill-opacity="1" fill-rule="nonzero"/><path fill="#128f8b" d="M 39.300781 83.710938 L 41.265625 83.710938 L 41.265625 85.683594 L 39.300781 85.683594 Z M 39.300781 83.710938 " fill-opacity="1" fill-rule="nonzero"/><path fill="#128f8b" d="M 13.753906 83.710938 L 15.71875 83.710938 L 15.71875 85.683594 L 13.753906 85.683594 Z M 13.753906 83.710938 " fill-opacity="1" fill-rule="nonzero"/><g clip-path="url(#7312a49234)"><path fill="#128f8b" d="M 9.824219 85.683594 L 11.789062 85.683594 L 11.789062 87.65625 L 9.824219 87.65625 Z M 9.824219 85.683594 " fill-opacity="1" fill-rule="nonzero"/></g><path fill="#128f8b" d="M 23.578125 81.738281 L 25.546875 81.738281 L 25.546875 83.710938 L 23.578125 83.710938 Z M 23.578125 81.738281 " fill-opacity="1" fill-rule="nonzero"/><path fill="#128f8b" d="M 27.511719 83.710938 L 29.476562 83.710938 L 29.476562 85.683594 L 27.511719 85.683594 Z M 27.511719 83.710938 " fill-opacity="1" fill-rule="nonzero"/><path fill="#128f8b" d="M 41.265625 71.878906 L 43.230469 71.878906 L 43.230469 73.851562 L 41.265625 73.851562 Z M 41.265625 71.878906 " fill-opacity="1" fill-rule="nonzero"/><path fill="#128f8b" d="M 47.160156 77.796875 L 49.125 77.796875 L 49.125 79.765625 L 47.160156 79.765625 Z M 47.160156 77.796875 " fill-opacity="1" fill-rule="nonzero"/><path fill="#128f8b" d="M 45.195312 79.765625 L 47.160156 79.765625 L 47.160156 81.738281 L 45.195312 81.738281 Z M 45.195312 79.765625 " fill-opacity="1" fill-rule="nonzero"/><path fill="#128f8b" d="M 49.125 79.765625 L 51.089844 79.765625 L 51.089844 81.738281 L 49.125 81.738281 Z M 49.125 79.765625 " fill-opacity="1" fill-rule="nonzero"/><path fill="#128f8b" d="M 51.089844 81.738281 L 53.054688 81.738281 L 53.054688 83.710938 L 51.089844 83.710938 Z M 51.089844 81.738281 " fill-opacity="1" fill-rule="nonzero"/><g clip-path="url(#52379da7fe)"><path fill="#128f8b" d="M 55.019531 85.683594 L 56.984375 85.683594 L 56.984375 87.65625 L 55.019531 87.65625 Z M 55.019531 85.683594 " fill-opacity="1" fill-rule="nonzero"/></g><path fill="#128f8b" d="M 51.089844 56.105469 L 53.054688 56.105469 L 53.054688 58.074219 L 51.089844 58.074219 Z M 51.089844 56.105469 " fill-opacity="1" fill-rule="nonzero"/><path fill="#128f8b" d="M 135.585938 58.074219 L 137.550781 58.074219 L 137.550781 60.046875 L 135.585938 60.046875 Z M 135.585938 58.074219 " fill-opacity="1" fill-rule="nonzero"/><path fill="#128f8b" d="M 137.550781 63.992188 L 139.515625 63.992188 L 139.515625 65.964844 L 137.550781 65.964844 Z M 137.550781 63.992188 " fill-opacity="1" fill-rule="nonzero"/><path fill="#128f8b" d="M 139.515625 65.964844 L 141.480469 65.964844 L 141.480469 67.9375 L 139.515625 67.9375 Z M 139.515625 65.964844 " fill-opacity="1" fill-rule="nonzero"/><path fill="#128f8b" d="M 145.410156 69.90625 L 147.375 69.90625 L 147.375 71.878906 L 145.410156 71.878906 Z M 145.410156 69.90625 " fill-opacity="1" fill-rule="nonzero"/><path fill="#128f8b" d="M 147.375 71.878906 L 149.339844 71.878906 L 149.339844 73.851562 L 147.375 73.851562 Z M 147.375 71.878906 " fill-opacity="1" fill-rule="nonzero"/><path fill="#128f8b" d="M 153.269531 75.824219 L 155.234375 75.824219 L 155.234375 77.796875 L 153.269531 77.796875 Z M 153.269531 75.824219 " fill-opacity="1" fill-rule="nonzero"/><path fill="#128f8b" d="M 155.234375 79.765625 L 157.199219 79.765625 L 157.199219 81.738281 L 155.234375 81.738281 Z M 155.234375 79.765625 " fill-opacity="1" fill-rule="nonzero"/><path fill="#128f8b" d="M 157.199219 81.738281 L 159.164062 81.738281 L 159.164062 83.710938 L 157.199219 83.710938 Z M 157.199219 81.738281 " fill-opacity="1" fill-rule="nonzero"/><g clip-path="url(#919b77d8d3)"><path fill="#128f8b" d="M 161.128906 85.683594 L 163.09375 85.683594 L 163.09375 87.65625 L 161.128906 87.65625 Z M 161.128906 85.683594 " fill-opacity="1" fill-rule="nonzero"/></g><path fill="#128f8b" d="M 149.339844 75.824219 L 151.304688 75.824219 L 151.304688 77.796875 L 149.339844 77.796875 Z M 149.339844 75.824219 " fill-opacity="1" fill-rule="nonzero"/><path fill="#128f8b" d="M 151.304688 79.765625 L 153.269531 79.765625 L 153.269531 81.738281 L 151.304688 81.738281 Z M 151.304688 79.765625 " fill-opacity="1" fill-rule="nonzero"/><path fill="#128f8b" d="M 149.339844 62.019531 L 151.304688 62.019531 L 151.304688 63.992188 L 149.339844 63.992188 Z M 149.339844 62.019531 " fill-opacity="1" fill-rule="nonzero"/><path fill="#128f8b" d="M 153.269531 58.074219 L 155.234375 58.074219 L 155.234375 60.046875 L 153.269531 60.046875 Z M 153.269531 58.074219 " fill-opacity="1" fill-rule="nonzero"/><path fill="#128f8b" d="M 153.269531 63.992188 L 155.234375 63.992188 L 155.234375 65.964844 L 153.269531 65.964844 Z M 153.269531 63.992188 " fill-opacity="1" fill-rule="nonzero"/><path fill="#128f8b" d="M 155.234375 54.132812 L 157.199219 54.132812 L 157.199219 56.105469 L 155.234375 56.105469 Z M 155.234375 54.132812 " fill-opacity="1" fill-rule="nonzero"/><path fill="#128f8b" d="M 151.304688 60.046875 L 153.269531 60.046875 L 153.269531 62.019531 L 151.304688 62.019531 Z M 151.304688 60.046875 " fill-opacity="1" fill-rule="nonzero"/><path fill="#128f8b" d="M 155.234375 65.964844 L 157.199219 65.964844 L 157.199219 67.9375 L 155.234375 67.9375 Z M 155.234375 65.964844 " fill-opacity="1" fill-rule="nonzero"/><path fill="#128f8b" d="M 159.164062 67.9375 L 161.128906 67.9375 L 161.128906 69.90625 L 159.164062 69.90625 Z M 159.164062 67.9375 " fill-opacity="1" fill-rule="nonzero"/><path fill="#128f8b" d="M 161.128906 71.878906 L 163.09375 71.878906 L 163.09375 73.851562 L 161.128906 73.851562 Z M 161.128906 71.878906 " fill-opacity="1" fill-rule="nonzero"/><path fill="#128f8b" d="M 167.023438 75.824219 L 168.988281 75.824219 L 168.988281 77.796875 L 167.023438 77.796875 Z M 167.023438 75.824219 " fill-opacity="1" fill-rule="nonzero"/><path fill="#128f8b" d="M 168.988281 77.796875 L 170.953125 77.796875 L 170.953125 79.765625 L 168.988281 79.765625 Z M 168.988281 77.796875 " fill-opacity="1" fill-rule="nonzero"/><path fill="#128f8b" d="M 172.921875 79.765625 L 174.886719 79.765625 L 174.886719 81.738281 L 172.921875 81.738281 Z M 172.921875 79.765625 " fill-opacity="1" fill-rule="nonzero"/><path fill="#128f8b" d="M 176.851562 81.738281 L 178.816406 81.738281 L 178.816406 83.710938 L 176.851562 83.710938 Z M 176.851562 81.738281 " fill-opacity="1" fill-rule="nonzero"/><path fill="#128f8b" d="M 180.78125 83.710938 L 182.746094 83.710938 L 182.746094 85.683594 L 180.78125 85.683594 Z M 180.78125 83.710938 " fill-opacity="1" fill-rule="nonzero"/><path fill="#fb6ba2" d="M 123.796875 75.824219 L 125.761719 75.824219 L 125.761719 73.851562 L 127.726562 73.851562 L 127.726562 71.878906 L 123.796875 71.878906 Z M 123.796875 75.824219 " fill-opacity="1" fill-rule="nonzero"/><path fill="#fb6ba2" d="M 125.761719 75.824219 L 127.726562 75.824219 L 127.726562 77.796875 L 125.761719 77.796875 Z M 125.761719 75.824219 " fill-opacity="1" fill-rule="nonzero"/><path fill="#fb6ba2" d="M 129.691406 77.796875 L 131.65625 77.796875 L 131.65625 79.765625 L 129.691406 79.765625 Z M 129.691406 77.796875 " fill-opacity="1" fill-rule="nonzero"/><g clip-path="url(#6f273a5ea8)"><path fill="#fb6ba2" d="M 139.515625 67.9375 L 137.550781 67.9375 L 137.550781 65.964844 L 135.585938 65.964844 L 135.585938 58.074219 L 133.621094 58.074219 L 133.621094 54.132812 L 129.691406 54.132812 L 129.691406 52.160156 L 125.761719 52.160156 L 125.761719 50.1875 L 121.828125 50.1875 L 121.828125 48.214844 L 119.863281 48.214844 L 119.863281 44.273438 L 115.933594 44.273438 L 115.933594 40.328125 L 113.96875 40.328125 L 113.96875 36.382812 L 112.003906 36.382812 L 112.003906 32.441406 L 108.074219 32.441406 L 108.074219 30.46875 L 104.144531 30.46875 L 104.144531 28.496094 L 102.179688 28.496094 L 102.179688 26.523438 L 100.214844 26.523438 L 100.214844 24.554688 L 98.25 24.554688 L 98.25 22.582031 L 94.320312 22.582031 L 94.320312 24.554688 L 92.355469 24.554688 L 92.355469 26.523438 L 94.320312 26.523438 L 94.320312 30.46875 L 92.355469 30.46875 L 92.355469 32.441406 L 90.390625 32.441406 L 90.390625 40.328125 L 88.425781 40.328125 L 88.425781 44.273438 L 86.460938 44.273438 L 86.460938 46.246094 L 88.425781 46.246094 L 88.425781 50.1875 L 86.460938 50.1875 L 86.460938 52.160156 L 88.425781 52.160156 L 88.425781 54.132812 L 92.355469 54.132812 L 92.355469 56.105469 L 94.320312 56.105469 L 94.320312 58.074219 L 96.285156 58.074219 L 96.285156 56.105469 L 98.25 56.105469 L 98.25 58.074219 L 100.214844 58.074219 L 100.214844 56.105469 L 102.179688 56.105469 L 102.179688 58.074219 L 108.074219 58.074219 L 108.074219 60.046875 L 110.039062 60.046875 L 110.039062 63.992188 L 113.96875 63.992188 L 113.96875 67.9375 L 117.898438 67.9375 L 117.898438 69.90625 L 119.863281 69.90625 L 119.863281 71.878906 L 123.796875 71.878906 L 123.796875 69.90625 L 125.761719 69.90625 L 125.761719 65.964844 L 121.828125 65.964844 L 121.828125 63.992188 L 119.863281 63.992188 L 119.863281 62.019531 L 117.898438 62.019531 L 117.898438 60.046875 L 121.828125 60.046875 L 121.828125 62.019531 L 123.796875 62.019531 L 123.796875 60.046875 L 125.761719 60.046875 L 125.761719 62.019531 L 129.691406 62.019531 L 129.691406 63.992188 L 133.621094 63.992188 L 133.621094 65.964844 L 131.65625 65.964844 L 131.65625 67.9375 L 135.585938 67.9375 L 135.585938 71.878906 L 137.550781 71.878906 L 137.550781 69.90625 L 139.515625 69.90625 Z M 90.390625 48.214844 L 92.355469 48.214844 L 92.355469 50.1875 L 90.390625 50.1875 Z M 90.390625 48.214844 " fill-opacity="1" fill-rule="nonzero"/></g><path fill="#fb6ba2" d="M 141.480469 71.878906 L 143.445312 71.878906 L 143.445312 73.851562 L 141.480469 73.851562 Z M 141.480469 71.878906 " fill-opacity="1" fill-rule="nonzero"/><path fill="#fb6ba2" d="M 139.515625 75.824219 L 143.445312 75.824219 L 143.445312 77.796875 L 139.515625 77.796875 Z M 139.515625 75.824219 " fill-opacity="1" fill-rule="nonzero"/><path fill="#fb6ba2" d="M 143.445312 77.796875 L 145.410156 77.796875 L 145.410156 79.765625 L 143.445312 79.765625 Z M 143.445312 77.796875 " fill-opacity="1" fill-rule="nonzero"/><path fill="#fb6ba2" d="M 90.390625 56.105469 L 92.355469 56.105469 L 92.355469 58.074219 L 90.390625 58.074219 Z M 90.390625 56.105469 " fill-opacity="1" fill-rule="nonzero"/><path fill="#fb6ba2" d="M 92.355469 58.074219 L 94.320312 58.074219 L 94.320312 60.046875 L 92.355469 60.046875 Z M 92.355469 58.074219 " fill-opacity="1" fill-rule="nonzero"/><path fill="#fb6ba2" d="M 86.460938 56.105469 L 84.496094 56.105469 L 84.496094 58.074219 L 86.460938 58.074219 L 86.460938 60.046875 L 88.425781 60.046875 L 88.425781 54.132812 L 86.460938 54.132812 Z M 86.460938 56.105469 " fill-opacity="1" fill-rule="nonzero"/><path fill="#fb6ba2" d="M 100.214844 58.074219 L 102.179688 58.074219 L 102.179688 60.046875 L 100.214844 60.046875 Z M 100.214844 58.074219 " fill-opacity="1" fill-rule="nonzero"/><path fill="#fb6ba2" d="M 106.109375 60.046875 L 108.074219 60.046875 L 108.074219 62.019531 L 106.109375 62.019531 Z M 106.109375 60.046875 " fill-opacity="1" fill-rule="nonzero"/><path fill="#fb6ba2" d="M 157.199219 52.160156 L 159.164062 52.160156 L 159.164062 54.132812 L 157.199219 54.132812 Z M 157.199219 52.160156 " fill-opacity="1" fill-rule="nonzero"/><path fill="#fb6ba2" d="M 157.199219 56.105469 L 159.164062 56.105469 L 159.164062 58.074219 L 157.199219 58.074219 Z M 157.199219 56.105469 " fill-opacity="1" fill-rule="nonzero"/><path fill="#fb6ba2" d="M 163.09375 73.851562 L 165.058594 73.851562 L 165.058594 75.824219 L 163.09375 75.824219 Z M 163.09375 73.851562 " fill-opacity="1" fill-rule="nonzero"/><path fill="#fb6ba2" d="M 190.605469 81.738281 L 188.640625 81.738281 L 188.640625 79.765625 L 186.675781 79.765625 L 186.675781 75.824219 L 182.746094 75.824219 L 182.746094 71.878906 L 180.78125 71.878906 L 180.78125 69.90625 L 178.816406 69.90625 L 178.816406 65.964844 L 176.851562 65.964844 L 176.851562 63.992188 L 174.886719 63.992188 L 174.886719 60.046875 L 172.921875 60.046875 L 172.921875 58.074219 L 168.988281 58.074219 L 168.988281 56.105469 L 167.023438 56.105469 L 167.023438 54.132812 L 165.058594 54.132812 L 165.058594 52.160156 L 163.09375 52.160156 L 163.09375 50.1875 L 161.128906 50.1875 L 161.128906 48.214844 L 157.199219 48.214844 L 157.199219 50.1875 L 159.164062 50.1875 L 159.164062 52.160156 L 161.128906 52.160156 L 161.128906 54.132812 L 159.164062 54.132812 L 159.164062 56.105469 L 161.128906 56.105469 L 161.128906 58.074219 L 159.164062 58.074219 L 159.164062 60.046875 L 157.199219 60.046875 L 157.199219 62.019531 L 155.234375 62.019531 L 155.234375 63.992188 L 159.164062 63.992188 L 159.164062 65.964844 L 163.09375 65.964844 L 163.09375 67.9375 L 165.058594 67.9375 L 165.058594 69.90625 L 163.09375 69.90625 L 163.09375 71.878906 L 165.058594 71.878906 L 165.058594 73.851562 L 167.023438 73.851562 L 167.023438 75.824219 L 168.988281 75.824219 L 168.988281 73.851562 L 170.953125 73.851562 L 170.953125 75.824219 L 172.921875 75.824219 L 172.921875 77.796875 L 176.851562 77.796875 L 176.851562 79.765625 L 180.78125 79.765625 L 180.78125 81.738281 L 182.746094 81.738281 L 182.746094 83.710938 L 184.710938 83.710938 L 184.710938 81.738281 L 186.675781 81.738281 L 186.675781 83.710938 L 188.640625 83.710938 L 188.640625 85.683594 L 190.605469 85.683594 L 190.605469 83.710938 L 192.570312 83.710938 L 192.570312 81.738281 Z M 174.886719 67.9375 L 176.851562 67.9375 L 176.851562 69.90625 L 174.886719 69.90625 Z M 174.886719 67.9375 " fill-opacity="1" fill-rule="nonzero"/><path fill="#fb6ba2" d="M 82.53125 58.074219 L 84.496094 58.074219 L 84.496094 60.046875 L 82.53125 60.046875 Z M 82.53125 58.074219 " fill-opacity="1" fill-rule="nonzero"/><path fill="#fb6ba2" d="M 88.425781 60.046875 L 90.390625 60.046875 L 90.390625 62.019531 L 88.425781 62.019531 Z M 88.425781 60.046875 " fill-opacity="1" fill-rule="nonzero"/><path fill="#fb6ba2" d="M 96.285156 60.046875 L 98.25 60.046875 L 98.25 62.019531 L 96.285156 62.019531 Z M 96.285156 60.046875 " fill-opacity="1" fill-rule="nonzero"/><path fill="#fb6ba2" d="M 29.476562 65.964844 L 31.441406 65.964844 L 31.441406 67.9375 L 29.476562 67.9375 Z M 29.476562 65.964844 " fill-opacity="1" fill-rule="nonzero"/><path fill="#fb6ba2" d="M 41.265625 65.964844 L 39.300781 65.964844 L 39.300781 63.992188 L 37.335938 63.992188 L 37.335938 60.046875 L 31.441406 60.046875 L 31.441406 62.019531 L 33.40625 62.019531 L 33.40625 63.992188 L 31.441406 63.992188 L 31.441406 65.964844 L 33.40625 65.964844 L 33.40625 67.9375 L 31.441406 67.9375 L 31.441406 69.90625 L 35.371094 69.90625 L 35.371094 71.878906 L 37.335938 71.878906 L 37.335938 73.851562 L 35.371094 73.851562 L 35.371094 75.824219 L 37.335938 75.824219 L 37.335938 77.796875 L 39.300781 77.796875 L 39.300781 75.824219 L 41.265625 75.824219 L 41.265625 71.878906 L 43.230469 71.878906 L 43.230469 69.90625 L 41.265625 69.90625 Z M 41.265625 65.964844 " fill-opacity="1" fill-rule="nonzero"/><path fill="#fb6ba2" d="M 41.265625 75.824219 L 43.230469 75.824219 L 43.230469 77.796875 L 41.265625 77.796875 Z M 41.265625 75.824219 " fill-opacity="1" fill-rule="nonzero"/><path fill="#fb6ba2" d="M 84.496094 62.019531 L 86.460938 62.019531 L 86.460938 63.992188 L 84.496094 63.992188 Z M 84.496094 62.019531 " fill-opacity="1" fill-rule="nonzero"/><path fill="#fb6ba2" d="M 90.390625 65.964844 L 92.355469 65.964844 L 92.355469 67.9375 L 90.390625 67.9375 Z M 90.390625 65.964844 " fill-opacity="1" fill-rule="nonzero"/><path fill="#fb6ba2" d="M 92.355469 62.019531 L 94.320312 62.019531 L 94.320312 63.992188 L 92.355469 63.992188 Z M 92.355469 62.019531 " fill-opacity="1" fill-rule="nonzero"/><path fill="#fb6ba2" d="M 82.53125 65.964844 L 84.496094 65.964844 L 84.496094 67.9375 L 82.53125 67.9375 Z M 82.53125 65.964844 " fill-opacity="1" fill-rule="nonzero"/><path fill="#fafadc" d="M 102.179688 28.496094 L 104.144531 28.496094 L 104.144531 30.46875 L 102.179688 30.46875 Z M 102.179688 28.496094 " fill-opacity="1" fill-rule="nonzero"/><path fill="#fafadc" d="M 94.320312 30.46875 L 96.285156 30.46875 L 96.285156 32.441406 L 94.320312 32.441406 Z M 94.320312 30.46875 " fill-opacity="1" fill-rule="nonzero"/><g clip-path="url(#ae77bba91c)"><path fill="#fafadc" d="M 98.25 32.441406 L 100.214844 32.441406 L 100.214844 28.496094 L 102.179688 28.496094 L 102.179688 26.523438 L 100.214844 26.523438 L 100.214844 24.554688 L 98.25 24.554688 L 98.25 22.582031 L 94.320312 22.582031 L 94.320312 26.523438 L 96.285156 26.523438 L 96.285156 30.46875 L 98.25 30.46875 Z M 98.25 32.441406 " fill-opacity="1" fill-rule="nonzero"/></g><path fill="#fafadc" d="M 106.109375 32.441406 L 106.109375 34.414062 L 108.074219 34.414062 L 108.074219 38.355469 L 110.039062 38.355469 L 110.039062 36.382812 L 112.003906 36.382812 L 112.003906 34.414062 L 110.039062 34.414062 L 110.039062 32.441406 L 108.074219 32.441406 L 108.074219 30.46875 L 104.144531 30.46875 L 104.144531 32.441406 Z M 106.109375 32.441406 " fill-opacity="1" fill-rule="nonzero"/><path fill="#fafadc" d="M 102.179688 40.328125 L 104.144531 40.328125 L 104.144531 42.300781 L 102.179688 42.300781 Z M 102.179688 40.328125 " fill-opacity="1" fill-rule="nonzero"/><path fill="#fafadc" d="M 96.285156 32.441406 L 98.25 32.441406 L 98.25 34.414062 L 96.285156 34.414062 Z M 96.285156 32.441406 " fill-opacity="1" fill-rule="nonzero"/><path fill="#fafadc" d="M 94.320312 34.414062 L 96.285156 34.414062 L 96.285156 36.382812 L 94.320312 36.382812 Z M 94.320312 34.414062 " fill-opacity="1" fill-rule="nonzero"/><path fill="#fafadc" d="M 92.355469 36.382812 L 94.320312 36.382812 L 94.320312 38.355469 L 92.355469 38.355469 Z M 92.355469 36.382812 " fill-opacity="1" fill-rule="nonzero"/><path fill="#fafadc" d="M 96.285156 40.328125 L 98.25 40.328125 L 98.25 42.300781 L 96.285156 42.300781 Z M 96.285156 40.328125 " fill-opacity="1" fill-rule="nonzero"/><path fill="#fafadc" d="M 94.320312 42.300781 L 96.285156 42.300781 L 96.285156 44.273438 L 94.320312 44.273438 Z M 94.320312 42.300781 " fill-opacity="1" fill-rule="nonzero"/><path fill="#fafadc" d="M 98.25 42.300781 L 100.214844 42.300781 L 100.214844 44.273438 L 98.25 44.273438 Z M 98.25 42.300781 " fill-opacity="1" fill-rule="nonzero"/><path fill="#fafadc" d="M 100.214844 44.273438 L 102.179688 44.273438 L 102.179688 46.246094 L 100.214844 46.246094 Z M 100.214844 44.273438 " fill-opacity="1" fill-rule="nonzero"/><path fill="#fafadc" d="M 159.164062 48.214844 L 161.128906 48.214844 L 161.128906 50.1875 L 159.164062 50.1875 Z M 159.164062 48.214844 " fill-opacity="1" fill-rule="nonzero"/><path fill="#fafadc" d="M 165.058594 54.132812 L 165.058594 52.160156 L 163.09375 52.160156 L 163.09375 50.1875 L 161.128906 50.1875 L 161.128906 54.132812 L 163.09375 54.132812 L 163.09375 56.105469 L 165.058594 56.105469 Z M 165.058594 54.132812 " fill-opacity="1" fill-rule="nonzero"/><path fill="#fafadc" d="M 163.09375 58.074219 L 165.058594 58.074219 L 165.058594 60.046875 L 163.09375 60.046875 Z M 163.09375 58.074219 " fill-opacity="1" fill-rule="nonzero"/><path fill="#fafadc" d="M 172.921875 60.046875 L 170.953125 60.046875 L 170.953125 58.074219 L 168.988281 58.074219 L 168.988281 56.105469 L 165.058594 56.105469 L 165.058594 58.074219 L 167.023438 58.074219 L 167.023438 60.046875 L 168.988281 60.046875 L 168.988281 62.019531 L 170.953125 62.019531 L 170.953125 63.992188 L 172.921875 63.992188 L 172.921875 62.019531 L 174.886719 62.019531 L 174.886719 60.046875 Z M 172.921875 60.046875 " fill-opacity="1" fill-rule="nonzero"/><path fill="#fafadc" d="M 167.023438 62.019531 L 168.988281 62.019531 L 168.988281 63.992188 L 167.023438 63.992188 Z M 167.023438 62.019531 " fill-opacity="1" fill-rule="nonzero"/><path fill="#fafadc" d="M 161.128906 60.046875 L 163.09375 60.046875 L 163.09375 62.019531 L 161.128906 62.019531 Z M 161.128906 60.046875 " fill-opacity="1" fill-rule="nonzero"/><path fill="#fafadc" d="M 165.058594 60.046875 L 167.023438 60.046875 L 167.023438 62.019531 L 165.058594 62.019531 Z M 165.058594 60.046875 " fill-opacity="1" fill-rule="nonzero"/><path fill="#fafadc" d="M 161.128906 56.105469 L 163.09375 56.105469 L 163.09375 58.074219 L 161.128906 58.074219 Z M 161.128906 56.105469 " fill-opacity="1" fill-rule="nonzero"/><path fill="#fafadc" d="M 108.074219 40.328125 L 108.074219 42.300781 L 110.039062 42.300781 L 110.039062 44.273438 L 112.003906 44.273438 L 112.003906 42.300781 L 113.96875 42.300781 L 113.96875 40.328125 L 112.003906 40.328125 L 112.003906 38.355469 L 110.039062 38.355469 L 110.039062 40.328125 Z M 108.074219 40.328125 " fill-opacity="1" fill-rule="nonzero"/><path fill="#fafadc" d="M 113.96875 42.300781 L 115.933594 42.300781 L 115.933594 44.273438 L 113.96875 44.273438 Z M 113.96875 42.300781 " fill-opacity="1" fill-rule="nonzero"/><path fill="#fafadc" d="M 112.003906 44.273438 L 113.96875 44.273438 L 113.96875 46.246094 L 112.003906 46.246094 Z M 112.003906 44.273438 " fill-opacity="1" fill-rule="nonzero"/><path fill="#fafadc" d="M 117.898438 46.246094 L 117.898438 48.214844 L 119.863281 48.214844 L 119.863281 44.273438 L 115.933594 44.273438 L 115.933594 46.246094 Z M 117.898438 46.246094 " fill-opacity="1" fill-rule="nonzero"/><path fill="#fafadc" d="M 113.96875 46.246094 L 115.933594 46.246094 L 115.933594 48.214844 L 113.96875 48.214844 Z M 113.96875 46.246094 " fill-opacity="1" fill-rule="nonzero"/><path fill="#fafadc" d="M 104.144531 38.355469 L 104.144531 36.382812 L 106.109375 36.382812 L 106.109375 34.414062 L 104.144531 34.414062 L 104.144531 32.441406 L 100.214844 32.441406 L 100.214844 34.414062 L 98.25 34.414062 L 98.25 36.382812 L 96.285156 36.382812 L 96.285156 38.355469 L 98.25 38.355469 L 98.25 40.328125 L 102.179688 40.328125 L 102.179688 38.355469 Z M 104.144531 38.355469 " fill-opacity="1" fill-rule="nonzero"/><path fill="#fafadc" d="M 37.335938 62.019531 L 37.335938 60.046875 L 33.40625 60.046875 L 33.40625 63.992188 L 35.371094 63.992188 L 35.371094 62.019531 Z M 37.335938 62.019531 " fill-opacity="1" fill-rule="nonzero"/><path fill="#fafadc" d="M 37.335938 63.992188 L 35.371094 63.992188 L 35.371094 65.964844 L 33.40625 65.964844 L 33.40625 67.9375 L 37.335938 67.9375 Z M 37.335938 63.992188 " fill-opacity="1" fill-rule="nonzero"/><path fill="#fafadc" d="M 37.335938 67.9375 L 39.300781 67.9375 L 39.300781 69.90625 L 37.335938 69.90625 Z M 37.335938 67.9375 " fill-opacity="1" fill-rule="nonzero"/><path fill="#fafadc" d="M 39.300781 65.964844 L 41.265625 65.964844 L 41.265625 67.9375 L 39.300781 67.9375 Z M 39.300781 65.964844 " fill-opacity="1" fill-rule="nonzero"/><path fill="#fafadc" d="M 39.300781 69.90625 L 41.265625 69.90625 L 41.265625 71.878906 L 39.300781 71.878906 Z M 39.300781 69.90625 " fill-opacity="1" fill-rule="nonzero"/><path fill="#fafadc" d="M 53.054688 50.1875 L 55.019531 50.1875 L 55.019531 52.160156 L 53.054688 52.160156 Z M 53.054688 50.1875 " fill-opacity="1" fill-rule="nonzero"/><path fill="#fafadc" d="M 55.019531 52.160156 L 56.984375 52.160156 L 56.984375 54.132812 L 55.019531 54.132812 Z M 55.019531 52.160156 " fill-opacity="1" fill-rule="nonzero"/><path fill="#fafadc" d="M 53.054688 54.132812 L 55.019531 54.132812 L 55.019531 56.105469 L 53.054688 56.105469 Z M 53.054688 54.132812 " fill-opacity="1" fill-rule="nonzero"/><path fill="#fafadc" d="M 110.039062 54.132812 L 112.003906 54.132812 L 112.003906 56.105469 L 110.039062 56.105469 Z M 110.039062 54.132812 " fill-opacity="1" fill-rule="nonzero"/><path fill="#fafadc" d="M 108.074219 56.105469 L 110.039062 56.105469 L 110.039062 58.074219 L 108.074219 58.074219 Z M 108.074219 56.105469 " fill-opacity="1" fill-rule="nonzero"/><path fill="#fafadc" d="M 112.003906 58.074219 L 112.003906 60.046875 L 113.96875 60.046875 L 113.96875 58.074219 L 115.933594 58.074219 L 115.933594 56.105469 L 112.003906 56.105469 Z M 112.003906 58.074219 " fill-opacity="1" fill-rule="nonzero"/><path fill="#fafadc" d="M 113.96875 60.046875 L 115.933594 60.046875 L 115.933594 62.019531 L 113.96875 62.019531 Z M 113.96875 60.046875 " fill-opacity="1" fill-rule="nonzero"/><path fill="#fafadc" d="M 110.039062 50.1875 L 108.074219 50.1875 L 108.074219 52.160156 L 106.109375 52.160156 L 106.109375 54.132812 L 110.039062 54.132812 Z M 110.039062 50.1875 " fill-opacity="1" fill-rule="nonzero"/><path fill="#fafadc" d="M 106.109375 48.214844 L 108.074219 48.214844 L 108.074219 50.1875 L 106.109375 50.1875 Z M 106.109375 48.214844 " fill-opacity="1" fill-rule="nonzero"/><path fill="#fafadc" d="M 108.074219 46.246094 L 110.039062 46.246094 L 110.039062 48.214844 L 108.074219 48.214844 Z M 108.074219 46.246094 " fill-opacity="1" fill-rule="nonzero"/><path fill="#fafadc" d="M 104.144531 44.273438 L 106.109375 44.273438 L 106.109375 46.246094 L 104.144531 46.246094 Z M 104.144531 44.273438 " fill-opacity="1" fill-rule="nonzero"/><path fill="#fafadc" d="M 115.933594 50.1875 L 117.898438 50.1875 L 117.898438 52.160156 L 115.933594 52.160156 Z M 115.933594 50.1875 " fill-opacity="1" fill-rule="nonzero"/><path fill="#fafadc" d="M 117.898438 52.160156 L 119.863281 52.160156 L 119.863281 54.132812 L 117.898438 54.132812 Z M 117.898438 52.160156 " fill-opacity="1" fill-rule="nonzero"/><path fill="#fafadc" d="M 119.863281 54.132812 L 121.828125 54.132812 L 121.828125 56.105469 L 119.863281 56.105469 Z M 119.863281 54.132812 " fill-opacity="1" fill-rule="nonzero"/><path fill="#fafadc" d="M 121.828125 52.160156 L 123.796875 52.160156 L 123.796875 54.132812 L 121.828125 54.132812 Z M 121.828125 52.160156 " fill-opacity="1" fill-rule="nonzero"/><path fill="#fafadc" d="M 123.796875 56.105469 L 125.761719 56.105469 L 125.761719 58.074219 L 123.796875 58.074219 Z M 123.796875 56.105469 " fill-opacity="1" fill-rule="nonzero"/><g clip-path="url(#66ddd304c6)"><path fill="#68bac2" d="M 123.796875 85.683594 L 125.761719 85.683594 L 125.761719 87.65625 L 123.796875 87.65625 Z M 123.796875 85.683594 " fill-opacity="1" fill-rule="nonzero"/></g><g clip-path="url(#0fa7d7da7e)"><path fill="#68bac2" d="M 119.863281 83.710938 L 117.898438 83.710938 L 117.898438 85.683594 L 115.933594 85.683594 L 115.933594 83.710938 L 117.898438 83.710938 L 117.898438 81.738281 L 115.933594 81.738281 L 115.933594 79.765625 L 112.003906 79.765625 L 112.003906 81.738281 L 113.96875 81.738281 L 113.96875 83.710938 L 112.003906 83.710938 L 112.003906 81.738281 L 110.039062 81.738281 L 110.039062 85.683594 L 112.003906 85.683594 L 112.003906 87.65625 L 121.828125 87.65625 L 121.828125 85.683594 L 119.863281 85.683594 Z M 119.863281 83.710938 " fill-opacity="1" fill-rule="nonzero"/></g><path fill="#68bac2" d="M 121.828125 83.710938 L 123.796875 83.710938 L 123.796875 85.683594 L 121.828125 85.683594 Z M 121.828125 83.710938 " fill-opacity="1" fill-rule="nonzero"/><path fill="#68bac2" d="M 110.039062 77.796875 L 112.003906 77.796875 L 112.003906 79.765625 L 110.039062 79.765625 Z M 110.039062 77.796875 " fill-opacity="1" fill-rule="nonzero"/><path fill="#68bac2" d="M 112.003906 75.824219 L 113.96875 75.824219 L 113.96875 77.796875 L 112.003906 77.796875 Z M 112.003906 75.824219 " fill-opacity="1" fill-rule="nonzero"/><path fill="#68bac2" d="M 145.410156 63.992188 L 147.375 63.992188 L 147.375 65.964844 L 145.410156 65.964844 Z M 145.410156 63.992188 " fill-opacity="1" fill-rule="nonzero"/><path fill="#68bac2" d="M 147.375 65.964844 L 149.339844 65.964844 L 149.339844 67.9375 L 147.375 67.9375 Z M 147.375 65.964844 " fill-opacity="1" fill-rule="nonzero"/><path fill="#68bac2" d="M 149.339844 67.9375 L 151.304688 67.9375 L 151.304688 69.90625 L 149.339844 69.90625 Z M 149.339844 67.9375 " fill-opacity="1" fill-rule="nonzero"/><path fill="#68bac2" d="M 139.515625 60.046875 L 139.515625 62.019531 L 141.480469 62.019531 L 141.480469 63.992188 L 145.410156 63.992188 L 145.410156 60.046875 Z M 139.515625 60.046875 " fill-opacity="1" fill-rule="nonzero"/><path fill="#68bac2" d="M 145.410156 58.074219 L 147.375 58.074219 L 147.375 60.046875 L 145.410156 60.046875 Z M 145.410156 58.074219 " fill-opacity="1" fill-rule="nonzero"/><g clip-path="url(#e479d28a26)"><path fill="#68bac2" d="M 174.886719 85.683594 L 176.851562 85.683594 L 176.851562 87.65625 L 174.886719 87.65625 Z M 174.886719 85.683594 " fill-opacity="1" fill-rule="nonzero"/></g><g clip-path="url(#979eefc7d5)"><path fill="#68bac2" d="M 170.953125 83.710938 L 167.023438 83.710938 L 167.023438 85.683594 L 168.988281 85.683594 L 168.988281 87.65625 L 172.921875 87.65625 L 172.921875 85.683594 L 170.953125 85.683594 Z M 170.953125 83.710938 " fill-opacity="1" fill-rule="nonzero"/></g><path fill="#68bac2" d="M 165.058594 81.738281 L 165.058594 79.765625 L 163.09375 79.765625 L 163.09375 83.710938 L 167.023438 83.710938 L 167.023438 81.738281 Z M 165.058594 81.738281 " fill-opacity="1" fill-rule="nonzero"/><g clip-path="url(#0be8e684cf)"><path fill="#68bac2" d="M 55.019531 69.90625 L 55.019531 71.878906 L 51.089844 71.878906 L 51.089844 73.851562 L 49.125 73.851562 L 49.125 71.878906 L 47.160156 71.878906 L 47.160156 67.9375 L 45.195312 67.9375 L 45.195312 69.90625 L 43.230469 69.90625 L 43.230469 71.878906 L 45.195312 71.878906 L 45.195312 73.851562 L 47.160156 73.851562 L 47.160156 75.824219 L 49.125 75.824219 L 49.125 77.796875 L 51.089844 77.796875 L 51.089844 79.765625 L 55.019531 79.765625 L 55.019531 83.710938 L 56.984375 83.710938 L 56.984375 85.683594 L 58.949219 85.683594 L 58.949219 87.65625 L 84.496094 87.65625 L 84.496094 85.683594 L 78.601562 85.683594 L 78.601562 83.710938 L 76.636719 83.710938 L 76.636719 81.738281 L 72.703125 81.738281 L 72.703125 83.710938 L 70.738281 83.710938 L 70.738281 81.738281 L 68.773438 81.738281 L 68.773438 83.710938 L 66.808594 83.710938 L 66.808594 85.683594 L 62.878906 85.683594 L 62.878906 83.710938 L 66.808594 83.710938 L 66.808594 81.738281 L 68.773438 81.738281 L 68.773438 79.765625 L 64.84375 79.765625 L 64.84375 81.738281 L 62.878906 81.738281 L 62.878906 79.765625 L 58.949219 79.765625 L 58.949219 81.738281 L 56.984375 81.738281 L 56.984375 79.765625 L 58.949219 79.765625 L 58.949219 77.796875 L 56.984375 77.796875 L 56.984375 75.824219 L 55.019531 75.824219 L 55.019531 73.851562 L 58.949219 73.851562 L 58.949219 75.824219 L 60.914062 75.824219 L 60.914062 71.878906 L 62.878906 71.878906 L 62.878906 69.90625 L 60.914062 69.90625 L 60.914062 67.9375 L 64.84375 67.9375 L 64.84375 65.964844 L 62.878906 65.964844 L 62.878906 63.992188 L 58.949219 63.992188 L 58.949219 65.964844 L 56.984375 65.964844 L 56.984375 67.9375 L 53.054688 67.9375 L 53.054688 69.90625 Z M 55.019531 69.90625 " fill-opacity="1" fill-rule="nonzero"/></g><path fill="#68bac2" d="M 70.738281 79.765625 L 72.703125 79.765625 L 72.703125 81.738281 L 70.738281 81.738281 Z M 70.738281 79.765625 " fill-opacity="1" fill-rule="nonzero"/><path fill="#68bac2" d="M 78.601562 81.738281 L 80.566406 81.738281 L 80.566406 83.710938 L 78.601562 83.710938 Z M 78.601562 81.738281 " fill-opacity="1" fill-rule="nonzero"/><path fill="#68bac2" d="M 72.703125 77.796875 L 76.636719 77.796875 L 76.636719 79.765625 L 72.703125 79.765625 Z M 72.703125 77.796875 " fill-opacity="1" fill-rule="nonzero"/><path fill="#68bac2" d="M 70.738281 75.824219 L 72.703125 75.824219 L 72.703125 77.796875 L 70.738281 77.796875 Z M 70.738281 75.824219 " fill-opacity="1" fill-rule="nonzero"/><path fill="#68bac2" d="M 72.703125 73.851562 L 74.671875 73.851562 L 74.671875 75.824219 L 72.703125 75.824219 Z M 72.703125 73.851562 " fill-opacity="1" fill-rule="nonzero"/><path fill="#68bac2" d="M 66.808594 75.824219 L 68.773438 75.824219 L 68.773438 77.796875 L 66.808594 77.796875 Z M 66.808594 75.824219 " fill-opacity="1" fill-rule="nonzero"/><path fill="#68bac2" d="M 62.878906 77.796875 L 64.84375 77.796875 L 64.84375 79.765625 L 62.878906 79.765625 Z M 62.878906 77.796875 " fill-opacity="1" fill-rule="nonzero"/><path fill="#68bac2" d="M 49.125 69.90625 L 51.089844 69.90625 L 51.089844 71.878906 L 49.125 71.878906 Z M 49.125 69.90625 " fill-opacity="1" fill-rule="nonzero"/><path fill="#68bac2" d="M 68.773438 73.851562 L 70.738281 73.851562 L 70.738281 75.824219 L 68.773438 75.824219 Z M 68.773438 73.851562 " fill-opacity="1" fill-rule="nonzero"/><path fill="#68bac2" d="M 49.125 65.964844 L 53.054688 65.964844 L 53.054688 67.9375 L 49.125 67.9375 Z M 49.125 65.964844 " fill-opacity="1" fill-rule="nonzero"/><path fill="#68bac2" d="M 51.089844 62.019531 L 51.089844 63.992188 L 53.054688 63.992188 L 53.054688 65.964844 L 55.019531 65.964844 L 55.019531 62.019531 Z M 51.089844 62.019531 " fill-opacity="1" fill-rule="nonzero"/><path fill="#68bac2" d="M 43.230469 62.019531 L 45.195312 62.019531 L 45.195312 63.992188 L 43.230469 63.992188 Z M 43.230469 62.019531 " fill-opacity="1" fill-rule="nonzero"/><path fill="#68bac2" d="M 43.230469 63.992188 L 41.265625 63.992188 L 41.265625 69.90625 L 43.230469 69.90625 Z M 43.230469 63.992188 " fill-opacity="1" fill-rule="nonzero"/><path fill="#68bac2" d="M 62.878906 62.019531 L 64.84375 62.019531 L 64.84375 63.992188 L 62.878906 63.992188 Z M 62.878906 62.019531 " fill-opacity="1" fill-rule="nonzero"/><path fill="#68bac2" d="M 66.808594 62.019531 L 68.773438 62.019531 L 68.773438 63.992188 L 66.808594 63.992188 Z M 66.808594 62.019531 " fill-opacity="1" fill-rule="nonzero"/><path fill="#68bac2" d="M 64.84375 58.074219 L 66.808594 58.074219 L 66.808594 60.046875 L 64.84375 60.046875 Z M 64.84375 58.074219 " fill-opacity="1" fill-rule="nonzero"/><g clip-path="url(#af6a0c5fb0)"><path fill="#68bac2" d="M 90.390625 22.582031 L 92.355469 22.582031 L 92.355469 24.554688 L 90.390625 24.554688 Z M 90.390625 22.582031 " fill-opacity="1" fill-rule="nonzero"/></g><path fill="#68bac2" d="M 88.425781 24.554688 L 90.390625 24.554688 L 90.390625 26.523438 L 88.425781 26.523438 Z M 88.425781 24.554688 " fill-opacity="1" fill-rule="nonzero"/><path fill="#68bac2" d="M 86.460938 26.523438 L 88.425781 26.523438 L 88.425781 28.496094 L 86.460938 28.496094 Z M 86.460938 26.523438 " fill-opacity="1" fill-rule="nonzero"/><path fill="#68bac2" d="M 82.53125 28.496094 L 82.53125 32.441406 L 84.496094 32.441406 L 84.496094 30.46875 L 86.460938 30.46875 L 86.460938 28.496094 Z M 82.53125 28.496094 " fill-opacity="1" fill-rule="nonzero"/><path fill="#68bac2" d="M 80.566406 32.441406 L 82.53125 32.441406 L 82.53125 34.414062 L 80.566406 34.414062 Z M 80.566406 32.441406 " fill-opacity="1" fill-rule="nonzero"/><path fill="#68bac2" d="M 76.636719 36.382812 L 76.636719 38.355469 L 78.601562 38.355469 L 78.601562 36.382812 L 80.566406 36.382812 L 80.566406 34.414062 L 76.636719 34.414062 Z M 76.636719 36.382812 " fill-opacity="1" fill-rule="nonzero"/><path fill="#68bac2" d="M 74.671875 38.355469 L 76.636719 38.355469 L 76.636719 42.300781 L 74.671875 42.300781 Z M 74.671875 38.355469 " fill-opacity="1" fill-rule="nonzero"/><path fill="#68bac2" d="M 70.738281 42.300781 L 70.738281 46.246094 L 72.703125 46.246094 L 72.703125 44.273438 L 74.671875 44.273438 L 74.671875 42.300781 Z M 70.738281 42.300781 " fill-opacity="1" fill-rule="nonzero"/><path fill="#68bac2" d="M 66.808594 46.246094 L 70.738281 46.246094 L 70.738281 48.214844 L 66.808594 48.214844 Z M 66.808594 46.246094 " fill-opacity="1" fill-rule="nonzero"/><path fill="#68bac2" d="M 64.84375 48.214844 L 66.808594 48.214844 L 66.808594 50.1875 L 64.84375 50.1875 Z M 64.84375 48.214844 " fill-opacity="1" fill-rule="nonzero"/><path fill="#68bac2" d="M 62.878906 50.1875 L 64.84375 50.1875 L 64.84375 52.160156 L 62.878906 52.160156 Z M 62.878906 50.1875 " fill-opacity="1" fill-rule="nonzero"/><path fill="#68bac2" d="M 60.914062 52.160156 L 62.878906 52.160156 L 62.878906 54.132812 L 60.914062 54.132812 Z M 60.914062 52.160156 " fill-opacity="1" fill-rule="nonzero"/><path fill="#68bac2" d="M 56.984375 56.105469 L 56.984375 58.074219 L 58.949219 58.074219 L 58.949219 56.105469 L 60.914062 56.105469 L 60.914062 54.132812 L 56.984375 54.132812 Z M 56.984375 56.105469 " fill-opacity="1" fill-rule="nonzero"/><path fill="#68bac2" d="M 55.019531 60.046875 L 55.019531 62.019531 L 56.984375 62.019531 L 56.984375 58.074219 L 55.019531 58.074219 Z M 55.019531 60.046875 " fill-opacity="1" fill-rule="nonzero"/><path fill="#68bac2" d="M 51.089844 50.1875 L 53.054688 50.1875 L 53.054688 52.160156 L 51.089844 52.160156 Z M 51.089844 50.1875 " fill-opacity="1" fill-rule="nonzero"/><path fill="#68bac2" d="M 49.125 52.160156 L 51.089844 52.160156 L 51.089844 54.132812 L 49.125 54.132812 Z M 49.125 52.160156 " fill-opacity="1" fill-rule="nonzero"/><path fill="#68bac2" d="M 47.160156 54.132812 L 49.125 54.132812 L 49.125 58.074219 L 47.160156 58.074219 Z M 47.160156 54.132812 " fill-opacity="1" fill-rule="nonzero"/><path fill="#68bac2" d="M 43.230469 58.074219 L 47.160156 58.074219 L 47.160156 60.046875 L 43.230469 60.046875 Z M 43.230469 58.074219 " fill-opacity="1" fill-rule="nonzero"/><path fill="#68bac2" d="M 41.265625 60.046875 L 43.230469 60.046875 L 43.230469 62.019531 L 41.265625 62.019531 Z M 41.265625 60.046875 " fill-opacity="1" fill-rule="nonzero"/><path fill="#68bac2" d="M 37.335938 62.019531 L 41.265625 62.019531 L 41.265625 63.992188 L 37.335938 63.992188 Z M 37.335938 62.019531 " fill-opacity="1" fill-rule="nonzero"/><path fill="#68bac2" d="M 29.476562 60.046875 L 31.441406 60.046875 L 31.441406 62.019531 L 29.476562 62.019531 Z M 29.476562 60.046875 " fill-opacity="1" fill-rule="nonzero"/><path fill="#68bac2" d="M 27.511719 62.019531 L 29.476562 62.019531 L 29.476562 63.992188 L 27.511719 63.992188 Z M 27.511719 62.019531 " fill-opacity="1" fill-rule="nonzero"/><path fill="#68bac2" d="M 25.546875 63.992188 L 27.511719 63.992188 L 27.511719 65.964844 L 25.546875 65.964844 Z M 25.546875 63.992188 " fill-opacity="1" fill-rule="nonzero"/><path fill="#68bac2" d="M 21.613281 67.9375 L 21.613281 69.90625 L 23.578125 69.90625 L 23.578125 67.9375 L 25.546875 67.9375 L 25.546875 65.964844 L 21.613281 65.964844 Z M 21.613281 67.9375 " fill-opacity="1" fill-rule="nonzero"/><path fill="#68bac2" d="M 19.648438 69.90625 L 21.613281 69.90625 L 21.613281 73.851562 L 19.648438 73.851562 Z M 19.648438 69.90625 " fill-opacity="1" fill-rule="nonzero"/><path fill="#68bac2" d="M 15.71875 73.851562 L 19.648438 73.851562 L 19.648438 75.824219 L 15.71875 75.824219 Z M 15.71875 73.851562 " fill-opacity="1" fill-rule="nonzero"/><path fill="#68bac2" d="M 13.753906 75.824219 L 15.71875 75.824219 L 15.71875 77.796875 L 13.753906 77.796875 Z M 13.753906 75.824219 " fill-opacity="1" fill-rule="nonzero"/><path fill="#68bac2" d="M 11.789062 77.796875 L 13.753906 77.796875 L 13.753906 79.765625 L 11.789062 79.765625 Z M 11.789062 77.796875 " fill-opacity="1" fill-rule="nonzero"/><path fill="#68bac2" d="M 5.894531 79.765625 L 11.789062 79.765625 L 11.789062 81.738281 L 5.894531 81.738281 Z M 5.894531 79.765625 " fill-opacity="1" fill-rule="nonzero"/><path fill="#68bac2" d="M 3.929688 81.738281 L 5.894531 81.738281 L 5.894531 83.710938 L 3.929688 83.710938 Z M 3.929688 81.738281 " fill-opacity="1" fill-rule="nonzero"/><path fill="#68bac2" d="M 1.964844 83.710938 L 3.929688 83.710938 L 3.929688 85.683594 L 1.964844 85.683594 Z M 1.964844 83.710938 " fill-opacity="1" fill-rule="nonzero"/><g clip-path="url(#f07116ff7d)"><path fill="#68bac2" d="M 0 85.683594 L 1.964844 85.683594 L 1.964844 87.65625 L 0 87.65625 Z M 0 85.683594 " fill-opacity="1" fill-rule="nonzero"/></g><path fill="#68bac2" d="M 147.375 56.105469 L 149.339844 56.105469 L 149.339844 58.074219 L 147.375 58.074219 Z M 147.375 56.105469 " fill-opacity="1" fill-rule="nonzero"/><path fill="#68bac2" d="M 149.339844 52.160156 L 151.304688 52.160156 L 151.304688 56.105469 L 149.339844 56.105469 Z M 149.339844 52.160156 " fill-opacity="1" fill-rule="nonzero"/><path fill="#68bac2" d="M 151.304688 50.1875 L 153.269531 50.1875 L 153.269531 52.160156 L 151.304688 52.160156 Z M 151.304688 50.1875 " fill-opacity="1" fill-rule="nonzero"/><path fill="#68bac2" d="M 153.269531 48.214844 L 155.234375 48.214844 L 155.234375 50.1875 L 153.269531 50.1875 Z M 153.269531 48.214844 " fill-opacity="1" fill-rule="nonzero"/><g fill="#333333" fill-opacity="1"><g transform="translate(455.43752, 87.829491)"><g><path d="M 2.429688 -4.140625 C 2.429688 -5.714844 3.570312 -6.5 4.707031 -6.5 C 5.65625 -6.5 6.617188 -5.953125 6.890625 -4.851562 L 8.941406 -4.851562 C 8.683594 -6.984375 6.84375 -8.433594 4.707031 -8.433594 C 2.335938 -8.433594 0.414062 -6.582031 0.414062 -4.140625 C 0.414062 -1.695312 2.335938 0.117188 4.707031 0.117188 C 6.867188 0.117188 8.644531 -1.316406 8.953125 -3.488281 L 6.902344 -3.488281 C 6.640625 -2.359375 5.679688 -1.789062 4.707031 -1.789062 C 3.570312 -1.789062 2.429688 -2.574219 2.429688 -4.140625 Z M 2.429688 -4.140625 "/></g></g></g><g fill="#333333" fill-opacity="1"><g transform="translate(464.771732, 87.829491)"><g><path d="M 3.273438 -6.523438 C 1.1875 -6.523438 0.167969 -5.050781 0.167969 -3.296875 C 0.167969 -1.53125 1.222656 0.0820312 3.25 0.0820312 C 3.867188 0.0820312 4.496094 -0.09375 4.933594 -0.640625 L 4.933594 0 L 6.796875 0 L 6.796875 -6.417969 L 4.933594 -6.417969 L 4.933594 -5.753906 C 4.519531 -6.285156 3.902344 -6.523438 3.273438 -6.523438 Z M 3.476562 -1.707031 C 2.527344 -1.707031 2.039062 -2.480469 2.039062 -3.25 C 2.039062 -4.03125 2.515625 -4.804688 3.476562 -4.804688 C 4.28125 -4.804688 4.933594 -4.105469 4.933594 -3.25 C 4.933594 -2.394531 4.28125 -1.707031 3.476562 -1.707031 Z M 3.476562 -1.707031 "/></g></g></g><g fill="#333333" fill-opacity="1"><g transform="translate(472.398031, 87.829491)"><g><path d="M 2.183594 -8.300781 L 0.285156 -8.300781 L 0.285156 0 L 2.183594 0 Z M 2.183594 -8.300781 "/></g></g></g><g fill="#333333" fill-opacity="1"><g transform="translate(475.351298, 87.829491)"><g><path d="M 3.238281 -0.0234375 C 3.878906 -0.0234375 4.484375 -0.203125 4.898438 -0.6875 L 4.898438 -0.355469 C 4.839844 0.792969 4.09375 1.152344 3.402344 1.152344 C 2.824219 1.152344 2.289062 0.832031 2.289062 0.449219 L 0.332031 0.449219 C 0.332031 2.003906 1.910156 2.964844 3.5 2.964844 C 5.125 2.964844 6.761719 2.003906 6.761719 -0.367188 L 6.761719 -6.417969 L 4.898438 -6.417969 L 4.898438 -5.777344 C 4.472656 -6.332031 3.832031 -6.488281 3.203125 -6.488281 C 1.175781 -6.488281 0.140625 -4.992188 0.140625 -3.15625 C 0.140625 -1.386719 1.175781 -0.0234375 3.238281 -0.0234375 Z M 3.453125 -4.707031 C 4.246094 -4.707031 4.898438 -4.007812 4.898438 -3.15625 C 4.898438 -2.265625 4.175781 -1.804688 3.453125 -1.789062 C 2.726562 -1.789062 2.015625 -2.242188 2.015625 -3.15625 C 2.015625 -3.925781 2.492188 -4.707031 3.453125 -4.707031 Z M 3.453125 -4.707031 "/></g></g></g><g fill="#333333" fill-opacity="1"><g transform="translate(482.94202, 87.829491)"><g><path d="M 3.273438 -6.523438 C 1.1875 -6.523438 0.167969 -5.050781 0.167969 -3.296875 C 0.167969 -1.53125 1.222656 0.0820312 3.25 0.0820312 C 3.867188 0.0820312 4.496094 -0.09375 4.933594 -0.640625 L 4.933594 0 L 6.796875 0 L 6.796875 -6.417969 L 4.933594 -6.417969 L 4.933594 -5.753906 C 4.519531 -6.285156 3.902344 -6.523438 3.273438 -6.523438 Z M 3.476562 -1.707031 C 2.527344 -1.707031 2.039062 -2.480469 2.039062 -3.25 C 2.039062 -4.03125 2.515625 -4.804688 3.476562 -4.804688 C 4.28125 -4.804688 4.933594 -4.105469 4.933594 -3.25 C 4.933594 -2.394531 4.28125 -1.707031 3.476562 -1.707031 Z M 3.476562 -1.707031 "/></g></g></g><g fill="#333333" fill-opacity="1"><g transform="translate(490.56832, 87.829491)"><g><path d="M 2.109375 -5.988281 L 2.039062 -6.417969 L 0.355469 -6.417969 L 0.355469 0 L 2.21875 0 L 2.21875 -3.558594 C 2.21875 -4.425781 2.90625 -4.78125 3.582031 -4.792969 C 3.796875 -4.792969 4.019531 -4.757812 4.210938 -4.695312 L 4.234375 -6.453125 C 3.984375 -6.511719 3.734375 -6.546875 3.511719 -6.546875 C 2.988281 -6.546875 2.527344 -6.382812 2.109375 -5.988281 Z M 2.109375 -5.988281 "/></g></g></g><g fill="#333333" fill-opacity="1"><g transform="translate(495.431121, 87.829491)"><g><path d="M 6.320312 -6.121094 L 6.320312 -6.417969 L 4.386719 -6.417969 L 3.59375 -4.363281 L 3.121094 -2.738281 L 2.667969 -4.363281 L 1.875 -6.417969 L -0.0703125 -6.417969 L -0.0703125 -6.121094 L 2.0625 -0.523438 L 1.234375 1.589844 L 1.234375 1.875 L 3.167969 1.875 C 4.210938 -0.792969 5.265625 -3.453125 6.320312 -6.121094 Z M 6.320312 -6.121094 "/></g></g></g><g clip-path="url(#1a9177b8d6)"><path fill="#333333" d="M 450.769531 89.269531 C 450.609375 89.269531 450.53125 89.183594 450.53125 89.019531 L 450.53125 82.523438 C 450.53125 82.359375 450.609375 82.273438 450.769531 82.273438 C 450.929688 82.273438 451.007812 82.359375 451.007812 82.523438 L 451.007812 89.019531 C 451.007812 89.183594 450.929688 89.269531 450.769531 89.269531 Z M 450.769531 89.269531 " fill-opacity="1" fill-rule="nonzero"/></g><g clip-path="url(#67d3ab84bd)"><path fill="#aa86a8" d="M 453.394531 80.027344 C 453.394531 80.390625 453.328125 80.742188 453.195312 81.078125 C 453.0625 81.414062 452.871094 81.710938 452.625 81.96875 C 452.378906 82.226562 452.097656 82.425781 451.773438 82.566406 C 451.453125 82.703125 451.117188 82.773438 450.769531 82.773438 C 450.421875 82.773438 450.085938 82.703125 449.765625 82.566406 C 449.445312 82.425781 449.160156 82.226562 448.914062 81.96875 C 448.667969 81.710938 448.476562 81.414062 448.34375 81.078125 C 448.210938 80.742188 448.144531 80.390625 448.144531 80.027344 C 448.144531 79.664062 448.210938 79.3125 448.34375 78.976562 C 448.476562 78.636719 448.667969 78.339844 448.914062 78.082031 C 449.160156 77.824219 449.445312 77.628906 449.765625 77.488281 C 450.085938 77.347656 450.421875 77.277344 450.769531 77.277344 C 451.117188 77.277344 451.453125 77.347656 451.773438 77.488281 C 452.097656 77.628906 452.378906 77.824219 452.625 78.082031 C 452.871094 78.339844 453.0625 78.636719 453.195312 78.976562 C 453.328125 79.3125 453.394531 79.664062 453.394531 80.027344 Z M 453.394531 80.027344 " fill-opacity="1" fill-rule="nonzero"/></g><path fill="#ce9db4" d="M 449.339844 80.277344 C 449.179688 80.277344 449.097656 80.191406 449.097656 80.027344 C 449.097656 79.792969 449.140625 79.570312 449.226562 79.359375 C 449.3125 79.144531 449.433594 78.953125 449.589844 78.789062 C 449.746094 78.625 449.925781 78.5 450.128906 78.410156 C 450.335938 78.324219 450.546875 78.277344 450.769531 78.277344 C 450.929688 78.277344 451.007812 78.359375 451.007812 78.527344 C 451.007812 78.695312 450.929688 78.777344 450.769531 78.777344 C 450.613281 78.777344 450.460938 78.808594 450.3125 78.871094 C 450.167969 78.9375 450.039062 79.027344 449.925781 79.144531 C 449.8125 79.261719 449.726562 79.394531 449.667969 79.546875 C 449.605469 79.703125 449.578125 79.859375 449.578125 80.027344 C 449.578125 80.191406 449.496094 80.277344 449.339844 80.277344 Z M 449.339844 80.277344 " fill-opacity="1" fill-rule="nonzero"/><g clip-path="url(#ad26472c54)"><path fill="#333333" d="M 450.769531 89.269531 C 450.609375 89.269531 450.53125 89.183594 450.53125 89.019531 L 450.53125 82.523438 C 450.53125 82.359375 450.609375 82.273438 450.769531 82.273438 C 450.929688 82.273438 451.007812 82.359375 451.007812 82.523438 L 451.007812 89.019531 C 451.007812 89.183594 450.929688 89.269531 450.769531 89.269531 Z M 450.769531 89.269531 " fill-opacity="1" fill-rule="nonzero"/></g><g clip-path="url(#0a585b71c2)"><path fill="#333333" d="M 450.769531 82.773438 C 450.421875 82.773438 450.085938 82.703125 449.765625 82.566406 C 449.445312 82.425781 449.160156 82.226562 448.914062 81.96875 C 448.667969 81.710938 448.476562 81.414062 448.34375 81.078125 C 448.210938 80.742188 448.144531 80.390625 448.144531 80.027344 C 448.144531 79.664062 448.210938 79.3125 448.34375 78.976562 C 448.476562 78.636719 448.667969 78.339844 448.914062 78.082031 C 449.160156 77.824219 449.445312 77.628906 449.765625 77.488281 C 450.085938 77.347656 450.421875 77.277344 450.769531 77.277344 C 451.117188 77.277344 451.453125 77.347656 451.773438 77.488281 C 452.097656 77.628906 452.378906 77.824219 452.625 78.082031 C 452.871094 78.339844 453.0625 78.636719 453.195312 78.976562 C 453.328125 79.3125 453.394531 79.664062 453.394531 80.027344 C 453.394531 80.390625 453.328125 80.742188 453.195312 81.078125 C 453.0625 81.414062 452.871094 81.710938 452.625 81.96875 C 452.378906 82.226562 452.09375 82.425781 451.773438 82.5625 C 451.453125 82.703125 451.117188 82.773438 450.769531 82.773438 Z M 450.769531 77.777344 C 450.484375 77.777344 450.210938 77.835938 449.949219 77.949219 C 449.683594 78.0625 449.453125 78.226562 449.25 78.4375 C 449.050781 78.648438 448.894531 78.890625 448.785156 79.167969 C 448.675781 79.441406 448.621094 79.726562 448.621094 80.027344 C 448.621094 80.324219 448.675781 80.613281 448.785156 80.886719 C 448.894531 81.164062 449.050781 81.40625 449.25 81.617188 C 449.453125 81.828125 449.683594 81.988281 449.949219 82.101562 C 450.210938 82.21875 450.484375 82.273438 450.769531 82.273438 C 451.054688 82.273438 451.328125 82.21875 451.59375 82.101562 C 451.855469 81.988281 452.085938 81.828125 452.289062 81.617188 C 452.488281 81.40625 452.644531 81.164062 452.753906 80.886719 C 452.863281 80.613281 452.917969 80.324219 452.917969 80.027344 C 452.917969 79.726562 452.863281 79.441406 452.753906 79.167969 C 452.644531 78.890625 452.488281 78.648438 452.289062 78.4375 C 452.085938 78.226562 451.855469 78.0625 451.59375 77.949219 C 451.328125 77.835938 451.054688 77.777344 450.769531 77.777344 Z M 450.769531 77.777344 " fill-opacity="1" fill-rule="nonzero"/></g><path fill="#333333" d="M 449.339844 80.277344 C 449.179688 80.277344 449.097656 80.191406 449.097656 80.027344 C 449.097656 79.792969 449.140625 79.570312 449.226562 79.359375 C 449.3125 79.144531 449.433594 78.953125 449.589844 78.789062 C 449.746094 78.625 449.925781 78.5 450.128906 78.410156 C 450.335938 78.324219 450.546875 78.277344 450.769531 78.277344 C 450.929688 78.277344 451.007812 78.359375 451.007812 78.527344 C 451.007812 78.695312 450.929688 78.777344 450.769531 78.777344 C 450.613281 78.777344 450.460938 78.808594 450.3125 78.871094 C 450.167969 78.9375 450.039062 79.027344 449.925781 79.144531 C 449.8125 79.261719 449.726562 79.394531 449.667969 79.546875 C 449.605469 79.703125 449.578125 79.859375 449.578125 80.027344 C 449.578125 80.191406 449.496094 80.277344 449.339844 80.277344 Z M 449.339844 80.277344 " fill-opacity="1" fill-rule="nonzero"/><g clip-path="url(#0c9513aa9b)"><path fill="#333333" d="M 450.769531 82.773438 C 450.421875 82.773438 450.085938 82.703125 449.765625 82.566406 C 449.445312 82.425781 449.160156 82.226562 448.914062 81.96875 C 448.667969 81.710938 448.476562 81.414062 448.34375 81.078125 C 448.210938 80.742188 448.144531 80.390625 448.144531 80.027344 C 448.144531 79.664062 448.210938 79.3125 448.34375 78.976562 C 448.476562 78.636719 448.667969 78.339844 448.914062 78.082031 C 449.160156 77.824219 449.445312 77.628906 449.765625 77.488281 C 450.085938 77.347656 450.421875 77.277344 450.769531 77.277344 C 451.117188 77.277344 451.453125 77.347656 451.773438 77.488281 C 452.097656 77.628906 452.378906 77.824219 452.625 78.082031 C 452.871094 78.339844 453.0625 78.636719 453.195312 78.976562 C 453.328125 79.3125 453.394531 79.664062 453.394531 80.027344 C 453.394531 80.191406 453.316406 80.277344 453.15625 80.277344 C 452.996094 80.277344 452.917969 80.191406 452.917969 80.027344 C 452.917969 79.726562 452.863281 79.441406 452.753906 79.167969 C 452.644531 78.890625 452.488281 78.648438 452.289062 78.4375 C 452.085938 78.226562 451.855469 78.0625 451.59375 77.949219 C 451.328125 77.835938 451.054688 77.777344 450.769531 77.777344 C 450.484375 77.777344 450.210938 77.835938 449.949219 77.949219 C 449.683594 78.0625 449.453125 78.226562 449.25 78.4375 C 449.050781 78.648438 448.894531 78.890625 448.785156 79.167969 C 448.675781 79.441406 448.621094 79.726562 448.621094 80.027344 C 448.621094 80.324219 448.675781 80.613281 448.785156 80.886719 C 448.894531 81.164062 449.050781 81.40625 449.25 81.617188 C 449.453125 81.828125 449.683594 81.988281 449.949219 82.101562 C 450.210938 82.21875 450.484375 82.273438 450.769531 82.273438 C 450.929688 82.273438 451.007812 82.359375 451.007812 82.523438 C 451.007812 82.691406 450.929688 82.773438 450.769531 82.773438 Z M 450.769531 82.773438 " fill-opacity="1" fill-rule="nonzero"/></g><g clip-path="url(#68572d9cb1)"><path fill="#f05285" d="M 425.851562 55.0625 C 420.277344 55.0625 415.726562 59.652344 415.726562 65.273438 C 415.726562 70.367188 419.460938 74.609375 424.304688 75.367188 L 424.304688 79.640625 L 418.300781 79.640625 L 418.300781 82.753906 L 424.304688 82.753906 L 424.304688 88.8125 L 427.394531 88.8125 L 427.394531 82.753906 L 433.402344 82.753906 L 433.402344 79.640625 L 427.394531 79.640625 L 427.394531 75.367188 C 432.242188 74.613281 435.976562 70.367188 435.976562 65.273438 C 435.976562 59.652344 431.425781 55.0625 425.851562 55.0625 Z M 425.851562 58.179688 C 429.753906 58.179688 432.886719 61.335938 432.886719 65.273438 C 432.886719 68.625 430.617188 71.414062 427.535156 72.167969 L 427.535156 70.875 C 429.890625 69.820312 431.503906 68.058594 431.503906 66.359375 C 431.503906 65.546875 430.898438 64.800781 429.890625 64.800781 C 429.046875 64.800781 428.542969 65.035156 427.703125 65.035156 C 426.019531 65.035156 426.289062 64.222656 425.917969 64.222656 C 425.546875 64.222656 425.179688 64.664062 425.179688 65.34375 C 425.179688 66.359375 426.019531 66.871094 426.859375 66.871094 C 427.367188 66.871094 427.535156 66.664062 427.835938 66.664062 C 428.039062 66.664062 428.140625 66.699219 428.140625 66.800781 C 428.140625 66.972656 427.769531 67.277344 427.296875 67.277344 C 425.617188 67.277344 425.414062 66.121094 423.328125 66.121094 C 422.050781 66.121094 421.242188 66.9375 421.242188 68.261719 C 421.242188 69.921875 422.316406 70.636719 424.167969 70.875 L 424.167969 72.167969 C 421.085938 71.414062 418.816406 68.625 418.816406 65.273438 C 418.816406 61.335938 421.949219 58.179688 425.851562 58.179688 Z M 426.726562 59.402344 C 426.085938 59.402344 425.886719 61.101562 425.886719 62.796875 C 425.886719 63.476562 426.1875 64.359375 427.027344 64.359375 C 427.871094 64.359375 428.507812 62.457031 428.507812 60.660156 C 428.507812 59.8125 427.199219 59.402344 426.726562 59.402344 Z M 425.109375 59.574219 C 424.4375 59.574219 423.160156 60.421875 423.160156 61.269531 C 423.160156 62.96875 423.496094 64.664062 424.335938 64.664062 C 425.246094 64.664062 425.683594 61.441406 425.683594 60.488281 C 425.683594 60.015625 425.480469 59.574219 425.109375 59.574219 Z M 429.382812 60.386719 C 428.878906 60.386719 428.542969 63.238281 428.542969 63.578125 C 428.542969 64.085938 429.046875 64.699219 429.554688 64.699219 C 429.921875 64.699219 430.695312 62.832031 430.695312 62.152344 C 430.695312 61.472656 429.890625 60.386719 429.382812 60.386719 Z M 422.316406 61.339844 C 421.644531 61.339844 420.804688 61.882812 420.804688 62.628906 C 420.804688 64.054688 421.476562 65.851562 422.488281 65.851562 C 422.855469 65.851562 423.023438 65.578125 423.023438 64.664062 C 423.023438 63.136719 422.824219 61.339844 422.316406 61.339844 Z M 422.316406 61.339844 " fill-opacity="1" fill-rule="nonzero"/></g><g fill="#aa86a8" fill-opacity="1"><g transform="translate(438.477773, 69.530971)"><g><path d="M 0.128906 -11.566406 L 4.5 -11.566406 C 4.5 -13.214844 5.574219 -14.316406 6.804688 -14.316406 C 8.347656 -14.316406 9.160156 -13.398438 9.160156 -12.40625 C 9.160156 -11.699219 8.636719 -10.9375 7.851562 -10.234375 L 0.15625 -3.21875 L 0.15625 0 L 13.582031 0 L 13.582031 -4.1875 L 7.222656 -4.1875 L 10.886719 -7.066406 C 12.667969 -8.53125 13.660156 -10.441406 13.660156 -12.324219 C 13.660156 -15.519531 11.75 -18.605469 6.804688 -18.605469 C 2.695312 -18.605469 0.128906 -15.546875 0.128906 -11.566406 Z M 0.128906 -11.566406 "/></g></g></g><g fill="#aa86a8" fill-opacity="1"><g transform="translate(454.040617, 69.530971)"><g><path d="M 7.378906 0.367188 C 12.300781 0.367188 14.8125 -4.03125 14.8125 -9.027344 C 14.8125 -14.183594 12.300781 -18.527344 7.378906 -18.527344 C 2.460938 -18.527344 0 -14.183594 0 -9.027344 C 0 -4.03125 2.460938 0.367188 7.378906 0.367188 Z M 7.378906 -14.15625 C 9.34375 -14.15625 10.285156 -12.195312 10.285156 -9.027344 C 10.285156 -6.203125 9.34375 -3.953125 7.378906 -3.953125 C 5.46875 -3.953125 4.527344 -6.203125 4.527344 -9.027344 C 4.527344 -12.195312 5.46875 -14.15625 7.378906 -14.15625 Z M 7.378906 -14.15625 "/></g></g></g><g fill="#aa86a8" fill-opacity="1"><g transform="translate(470.675848, 69.530971)"><g><path d="M 0.128906 -11.566406 L 4.5 -11.566406 C 4.5 -13.214844 5.574219 -14.316406 6.804688 -14.316406 C 8.347656 -14.316406 9.160156 -13.398438 9.160156 -12.40625 C 9.160156 -11.699219 8.636719 -10.9375 7.851562 -10.234375 L 0.15625 -3.21875 L 0.15625 0 L 13.582031 0 L 13.582031 -4.1875 L 7.222656 -4.1875 L 10.886719 -7.066406 C 12.667969 -8.53125 13.660156 -10.441406 13.660156 -12.324219 C 13.660156 -15.519531 11.75 -18.605469 6.804688 -18.605469 C 2.695312 -18.605469 0.128906 -15.546875 0.128906 -11.566406 Z M 0.128906 -11.566406 "/></g></g></g><g fill="#aa86a8" fill-opacity="1"><g transform="translate(486.238692, 69.530971)"><g><path d="M 3.953125 -6.070312 L -0.105469 -6.070312 C -0.105469 -2.722656 1.859375 0.289062 6.308594 0.289062 C 10.992188 0.289062 13.347656 -2.722656 13.347656 -5.574219 C 13.347656 -7.09375 12.796875 -8.582031 11.019531 -9.5 C 12.40625 -10.207031 12.796875 -11.671875 12.796875 -12.847656 C 12.796875 -16.617188 9.65625 -18.554688 6.515625 -18.554688 C 3.269531 -18.554688 0.0507812 -16.566406 0.0507812 -12.457031 L 3.925781 -12.457031 C 3.925781 -13.765625 5.078125 -14.367188 6.226562 -14.367188 C 7.355469 -14.367188 8.453125 -13.816406 8.453125 -12.71875 C 8.453125 -12.011719 7.878906 -11.253906 7.039062 -11.253906 L 4.316406 -11.253906 L 4.316406 -7.457031 L 7.039062 -7.457031 C 8.425781 -7.457031 8.976562 -6.464844 8.976562 -5.730469 C 8.976562 -4.605469 7.695312 -3.953125 6.410156 -3.953125 C 5.183594 -3.953125 3.953125 -4.578125 3.953125 -6.070312 Z M 3.953125 -6.070312 "/></g></g></g></svg>